M48
;DRILL file {KiCad 4.0.6} date 04/11/17 07:29:58
;FORMAT={-:-/ absolute / metric / decimal}
FMAT,2
METRIC,TZ
T1C0.800
T2C1.000
T3C1.300
%
G90
G05
M71
T1
X142.24Y-86.36
X142.24Y-89.535
X142.24Y-104.14
X142.24Y-106.64
X149.86Y-86.36
X149.86Y-89.535
X149.86Y-104.18
X149.86Y-106.68
X154.305Y-92.71
X154.305Y-100.33
X158.115Y-92.71
X158.115Y-100.33
T2
X135.255Y-102.87
X135.255Y-105.41
X135.255Y-107.95
X142.24Y-95.25
X142.24Y-97.79
X144.78Y-95.25
X144.78Y-97.79
X147.32Y-95.25
X147.32Y-97.79
X149.86Y-95.25
X149.86Y-97.79
X155.575Y-108.585
X158.115Y-108.585
T3
X143.51Y-114.935
X148.51Y-114.935
T0
M30
