G04 #@! TF.FileFunction,Copper,L2,Bot,Signal*
%FSLAX46Y46*%
G04 Gerber Fmt 4.6, Leading zero omitted, Abs format (unit mm)*
G04 Created by KiCad (PCBNEW 4.0.6) date 04/11/17 07:21:03*
%MOMM*%
%LPD*%
G01*
G04 APERTURE LIST*
%ADD10C,0.100000*%
%ADD11C,1.600000*%
%ADD12O,1.600000X1.600000*%
%ADD13R,1.800000X1.800000*%
%ADD14O,1.800000X1.800000*%
%ADD15C,2.500000*%
%ADD16R,2.500000X2.500000*%
%ADD17C,1.700000*%
%ADD18O,1.700000X1.700000*%
%ADD19C,0.400000*%
%ADD20C,0.250000*%
%ADD21C,0.254000*%
G04 APERTURE END LIST*
D10*
D11*
X158115000Y-100330000D03*
D12*
X158115000Y-92710000D03*
D13*
X135255000Y-102870000D03*
D14*
X135255000Y-105410000D03*
X135255000Y-107950000D03*
D11*
X142240000Y-104140000D03*
X142240000Y-106640000D03*
X149860000Y-106680000D03*
X149860000Y-104180000D03*
X154305000Y-100330000D03*
D12*
X154305000Y-92710000D03*
D11*
X149860000Y-86360000D03*
D12*
X142240000Y-86360000D03*
D11*
X142240000Y-89535000D03*
D12*
X149860000Y-89535000D03*
D15*
X143510000Y-114935000D03*
D16*
X148510000Y-114935000D03*
D17*
X158115000Y-108585000D03*
D18*
X155575000Y-108585000D03*
D17*
X149860000Y-97790000D03*
D18*
X149860000Y-95250000D03*
X147320000Y-97790000D03*
X147320000Y-95250000D03*
X144780000Y-97790000D03*
X144780000Y-95250000D03*
X142240000Y-97790000D03*
X142240000Y-95250000D03*
D19*
X142240000Y-104140000D02*
X143510000Y-104140000D01*
X143510000Y-109220000D02*
X143510000Y-114935000D01*
X144780000Y-107950000D02*
X143510000Y-109220000D01*
X144780000Y-105410000D02*
X144780000Y-107950000D01*
X143510000Y-104140000D02*
X144780000Y-105410000D01*
X142240000Y-104140000D02*
X139065000Y-104140000D01*
X139065000Y-104140000D02*
X135255000Y-107950000D01*
X149860000Y-106680000D02*
X151765000Y-106680000D01*
X154305000Y-104140000D02*
X154305000Y-100330000D01*
X151765000Y-106680000D02*
X154305000Y-104140000D01*
X135255000Y-105410000D02*
X136525000Y-105410000D01*
X147955000Y-106680000D02*
X149860000Y-106680000D01*
X143510000Y-102235000D02*
X147955000Y-106680000D01*
X139700000Y-102235000D02*
X143510000Y-102235000D01*
X136525000Y-105410000D02*
X139700000Y-102235000D01*
X154305000Y-100330000D02*
X158115000Y-100330000D01*
X151765000Y-97790000D02*
X154305000Y-100330000D01*
X149860000Y-97790000D02*
X151765000Y-97790000D01*
X147955000Y-99695000D02*
X149860000Y-97790000D01*
X146685000Y-99695000D02*
X147955000Y-99695000D01*
X144780000Y-97790000D02*
X146685000Y-99695000D01*
D20*
X144780000Y-95250000D02*
X144780000Y-92075000D01*
X144780000Y-92075000D02*
X142240000Y-89535000D01*
X158115000Y-92710000D02*
X158115000Y-97282000D01*
X158115000Y-97282000D02*
X160020000Y-99187000D01*
X160020000Y-99187000D02*
X160020000Y-105537000D01*
X160020000Y-105537000D02*
X158115000Y-107442000D01*
X158115000Y-107442000D02*
X158115000Y-108585000D01*
X149860000Y-86360000D02*
X151765000Y-86360000D01*
X151765000Y-86360000D02*
X158115000Y-92710000D01*
X154305000Y-92710000D02*
X154305000Y-94234000D01*
X154305000Y-94234000D02*
X159512000Y-99441000D01*
X159512000Y-99441000D02*
X159512000Y-104648000D01*
X159512000Y-104648000D02*
X155575000Y-108585000D01*
X149860000Y-89535000D02*
X151130000Y-89535000D01*
X151130000Y-89535000D02*
X154305000Y-92710000D01*
X147320000Y-91440000D02*
X142240000Y-86360000D01*
X147320000Y-95250000D02*
X147320000Y-91440000D01*
D21*
G36*
X160580000Y-98676130D02*
X160564852Y-98657154D01*
X160559369Y-98651594D01*
X160559274Y-98651478D01*
X160559166Y-98651389D01*
X160557401Y-98649599D01*
X158875000Y-96967198D01*
X158875000Y-93931163D01*
X158900753Y-93917700D01*
X159119017Y-93742211D01*
X159299038Y-93527671D01*
X159433959Y-93282250D01*
X159518642Y-93015296D01*
X159549860Y-92736979D01*
X159550000Y-92716943D01*
X159550000Y-92703057D01*
X159522671Y-92424331D01*
X159441724Y-92156221D01*
X159310242Y-91908940D01*
X159133234Y-91691907D01*
X158917442Y-91513388D01*
X158671085Y-91380183D01*
X158403547Y-91297367D01*
X158125018Y-91268092D01*
X157846108Y-91293475D01*
X157789838Y-91310036D01*
X153027727Y-86547925D01*
X154607062Y-86547925D01*
X154686185Y-86979030D01*
X154847536Y-87386557D01*
X155084970Y-87754982D01*
X155389443Y-88070273D01*
X155749358Y-88320421D01*
X156151005Y-88495896D01*
X156579087Y-88590016D01*
X157017297Y-88599195D01*
X157448944Y-88523084D01*
X157857587Y-88364582D01*
X158227661Y-88129726D01*
X158545070Y-87827461D01*
X158797724Y-87469302D01*
X158975999Y-87068889D01*
X159073105Y-86641475D01*
X159080096Y-86140847D01*
X158994962Y-85710888D01*
X158827936Y-85305654D01*
X158585381Y-84940580D01*
X158276536Y-84629571D01*
X157913164Y-84384473D01*
X157509105Y-84214622D01*
X157079751Y-84126489D01*
X156641456Y-84123429D01*
X156210914Y-84205559D01*
X155804523Y-84369752D01*
X155437764Y-84609752D01*
X155124607Y-84916419D01*
X154876978Y-85278071D01*
X154704311Y-85680933D01*
X154613182Y-86109662D01*
X154607062Y-86547925D01*
X153027727Y-86547925D01*
X152302401Y-85822599D01*
X152248145Y-85778032D01*
X152194375Y-85732914D01*
X152190874Y-85730989D01*
X152187785Y-85728452D01*
X152125933Y-85695287D01*
X152064396Y-85661457D01*
X152060584Y-85660248D01*
X152057065Y-85658361D01*
X151989969Y-85637848D01*
X151923013Y-85616608D01*
X151919041Y-85616162D01*
X151915219Y-85614994D01*
X151845351Y-85607897D01*
X151775611Y-85600074D01*
X151767806Y-85600020D01*
X151767653Y-85600004D01*
X151767510Y-85600018D01*
X151765000Y-85600000D01*
X151077982Y-85600000D01*
X150977426Y-85448650D01*
X150779129Y-85248964D01*
X150545823Y-85091597D01*
X150286394Y-84982543D01*
X150010724Y-84925956D01*
X149729313Y-84923991D01*
X149452880Y-84976724D01*
X149191954Y-85082145D01*
X148956473Y-85236239D01*
X148755408Y-85433137D01*
X148596416Y-85665339D01*
X148485553Y-85924000D01*
X148427043Y-86199268D01*
X148423114Y-86480659D01*
X148473915Y-86757453D01*
X148577512Y-87019109D01*
X148729959Y-87255660D01*
X148925448Y-87458095D01*
X149156534Y-87618704D01*
X149414415Y-87731369D01*
X149689268Y-87791800D01*
X149970624Y-87797693D01*
X150247767Y-87748826D01*
X150510140Y-87647058D01*
X150747749Y-87496267D01*
X150951544Y-87302195D01*
X151080068Y-87120000D01*
X151450198Y-87120000D01*
X156717028Y-92386830D01*
X156711358Y-92404704D01*
X156680140Y-92683021D01*
X156680000Y-92703057D01*
X156680000Y-92716943D01*
X156707329Y-92995669D01*
X156788276Y-93263779D01*
X156919758Y-93511060D01*
X157096766Y-93728093D01*
X157312558Y-93906612D01*
X157355000Y-93929560D01*
X157355000Y-96209198D01*
X155072858Y-93927056D01*
X155090753Y-93917700D01*
X155309017Y-93742211D01*
X155489038Y-93527671D01*
X155623959Y-93282250D01*
X155708642Y-93015296D01*
X155739860Y-92736979D01*
X155740000Y-92716943D01*
X155740000Y-92703057D01*
X155712671Y-92424331D01*
X155631724Y-92156221D01*
X155500242Y-91908940D01*
X155323234Y-91691907D01*
X155107442Y-91513388D01*
X154861085Y-91380183D01*
X154593547Y-91297367D01*
X154315018Y-91268092D01*
X154036108Y-91293475D01*
X153979838Y-91310036D01*
X151667401Y-88997599D01*
X151613145Y-88953032D01*
X151559375Y-88907914D01*
X151555874Y-88905989D01*
X151552785Y-88903452D01*
X151490933Y-88870287D01*
X151429396Y-88836457D01*
X151425584Y-88835248D01*
X151422065Y-88833361D01*
X151354969Y-88812848D01*
X151288013Y-88791608D01*
X151284041Y-88791162D01*
X151280219Y-88789994D01*
X151210351Y-88782897D01*
X151140611Y-88775074D01*
X151132806Y-88775020D01*
X151132653Y-88775004D01*
X151132510Y-88775018D01*
X151130000Y-88775000D01*
X151081163Y-88775000D01*
X151067700Y-88749247D01*
X150892211Y-88530983D01*
X150677671Y-88350962D01*
X150432250Y-88216041D01*
X150165296Y-88131358D01*
X149886979Y-88100140D01*
X149866943Y-88100000D01*
X149853057Y-88100000D01*
X149574331Y-88127329D01*
X149306221Y-88208276D01*
X149058940Y-88339758D01*
X148841907Y-88516766D01*
X148663388Y-88732558D01*
X148530183Y-88978915D01*
X148447367Y-89246453D01*
X148418092Y-89524982D01*
X148443475Y-89803892D01*
X148522548Y-90072560D01*
X148652300Y-90320753D01*
X148827789Y-90539017D01*
X149042329Y-90719038D01*
X149287750Y-90853959D01*
X149554704Y-90938642D01*
X149833021Y-90969860D01*
X149853057Y-90970000D01*
X149866943Y-90970000D01*
X150145669Y-90942671D01*
X150413779Y-90861724D01*
X150661060Y-90730242D01*
X150878093Y-90553234D01*
X150966530Y-90446332D01*
X152907028Y-92386830D01*
X152901358Y-92404704D01*
X152870140Y-92683021D01*
X152870000Y-92703057D01*
X152870000Y-92716943D01*
X152897329Y-92995669D01*
X152978276Y-93263779D01*
X153109758Y-93511060D01*
X153286766Y-93728093D01*
X153502558Y-93906612D01*
X153545000Y-93929560D01*
X153545000Y-94234000D01*
X153551851Y-94303877D01*
X153557969Y-94373803D01*
X153559084Y-94377641D01*
X153559474Y-94381618D01*
X153579764Y-94448821D01*
X153599351Y-94516240D01*
X153601190Y-94519788D01*
X153602345Y-94523613D01*
X153635299Y-94585591D01*
X153667610Y-94647925D01*
X153670103Y-94651048D01*
X153671980Y-94654578D01*
X153716355Y-94708987D01*
X153760148Y-94763846D01*
X153765631Y-94769406D01*
X153765726Y-94769522D01*
X153765834Y-94769611D01*
X153767599Y-94771401D01*
X157905268Y-98909070D01*
X157707880Y-98946724D01*
X157446954Y-99052145D01*
X157211473Y-99206239D01*
X157010408Y-99403137D01*
X156947508Y-99495000D01*
X155473153Y-99495000D01*
X155422426Y-99418650D01*
X155224129Y-99218964D01*
X154990823Y-99061597D01*
X154731394Y-98952543D01*
X154455724Y-98895956D01*
X154174313Y-98893991D01*
X154069797Y-98913929D01*
X152355434Y-97199566D01*
X152295818Y-97150596D01*
X152236747Y-97101030D01*
X152232904Y-97098917D01*
X152229507Y-97096127D01*
X152161474Y-97059648D01*
X152093941Y-97022522D01*
X152089758Y-97021195D01*
X152085886Y-97019119D01*
X152012107Y-96996563D01*
X151938606Y-96973247D01*
X151934242Y-96972758D01*
X151930044Y-96971474D01*
X151853284Y-96963676D01*
X151776658Y-96955081D01*
X151768087Y-96955021D01*
X151767915Y-96955004D01*
X151767755Y-96955019D01*
X151765000Y-96955000D01*
X151088185Y-96955000D01*
X151016361Y-96846895D01*
X150811155Y-96640252D01*
X150633563Y-96520465D01*
X150673131Y-96499780D01*
X150899000Y-96318177D01*
X151085294Y-96096161D01*
X151224916Y-95842189D01*
X151312549Y-95565934D01*
X151344855Y-95277919D01*
X151345000Y-95257185D01*
X151345000Y-95242815D01*
X151316718Y-94954377D01*
X151232951Y-94676925D01*
X151096888Y-94421029D01*
X150913713Y-94196433D01*
X150690401Y-94011694D01*
X150435461Y-93873848D01*
X150158601Y-93788146D01*
X149870367Y-93757851D01*
X149581739Y-93784118D01*
X149303709Y-93865947D01*
X149046869Y-94000220D01*
X148821000Y-94181823D01*
X148634706Y-94403839D01*
X148590502Y-94484247D01*
X148556888Y-94421029D01*
X148373713Y-94196433D01*
X148150401Y-94011694D01*
X148080000Y-93973628D01*
X148080000Y-91440000D01*
X148073148Y-91370119D01*
X148067031Y-91300197D01*
X148065916Y-91296359D01*
X148065526Y-91292382D01*
X148045246Y-91225212D01*
X148025650Y-91157761D01*
X148023809Y-91154210D01*
X148022655Y-91150387D01*
X147989710Y-91088426D01*
X147957390Y-91026075D01*
X147954897Y-91022952D01*
X147953020Y-91019422D01*
X147908645Y-90965013D01*
X147864852Y-90910154D01*
X147859369Y-90904594D01*
X147859274Y-90904478D01*
X147859166Y-90904389D01*
X147857401Y-90902599D01*
X143640983Y-86686181D01*
X143652633Y-86648547D01*
X143681908Y-86370018D01*
X143656525Y-86091108D01*
X143577452Y-85822440D01*
X143447700Y-85574247D01*
X143272211Y-85355983D01*
X143057671Y-85175962D01*
X142812250Y-85041041D01*
X142545296Y-84956358D01*
X142266979Y-84925140D01*
X142246943Y-84925000D01*
X142233057Y-84925000D01*
X141954331Y-84952329D01*
X141686221Y-85033276D01*
X141438940Y-85164758D01*
X141221907Y-85341766D01*
X141043388Y-85557558D01*
X140910183Y-85803915D01*
X140827367Y-86071453D01*
X140798092Y-86349982D01*
X140823475Y-86628892D01*
X140902548Y-86897560D01*
X141032300Y-87145753D01*
X141207789Y-87364017D01*
X141422329Y-87544038D01*
X141667750Y-87678959D01*
X141934704Y-87763642D01*
X142213021Y-87794860D01*
X142233057Y-87795000D01*
X142246943Y-87795000D01*
X142525669Y-87767671D01*
X142561923Y-87756725D01*
X146560000Y-91754802D01*
X146560000Y-93972444D01*
X146506869Y-94000220D01*
X146281000Y-94181823D01*
X146094706Y-94403839D01*
X146050502Y-94484247D01*
X146016888Y-94421029D01*
X145833713Y-94196433D01*
X145610401Y-94011694D01*
X145540000Y-93973628D01*
X145540000Y-92075000D01*
X145533144Y-92005073D01*
X145527030Y-91935197D01*
X145525916Y-91931364D01*
X145525526Y-91927382D01*
X145505224Y-91860138D01*
X145485649Y-91792760D01*
X145483810Y-91789212D01*
X145482655Y-91785387D01*
X145449691Y-91723390D01*
X145417389Y-91661074D01*
X145414897Y-91657953D01*
X145413020Y-91654422D01*
X145368641Y-91600007D01*
X145324852Y-91545154D01*
X145319369Y-91539594D01*
X145319274Y-91539478D01*
X145319166Y-91539389D01*
X145317401Y-91537599D01*
X143638166Y-89858364D01*
X143670573Y-89715723D01*
X143675061Y-89394291D01*
X143620400Y-89118233D01*
X143513160Y-88858049D01*
X143357426Y-88623650D01*
X143159129Y-88423964D01*
X142925823Y-88266597D01*
X142666394Y-88157543D01*
X142390724Y-88100956D01*
X142109313Y-88098991D01*
X141832880Y-88151724D01*
X141571954Y-88257145D01*
X141336473Y-88411239D01*
X141135408Y-88608137D01*
X140976416Y-88840339D01*
X140865553Y-89099000D01*
X140807043Y-89374268D01*
X140803114Y-89655659D01*
X140853915Y-89932453D01*
X140957512Y-90194109D01*
X141109959Y-90430660D01*
X141305448Y-90633095D01*
X141536534Y-90793704D01*
X141794415Y-90906369D01*
X142069268Y-90966800D01*
X142350624Y-90972693D01*
X142565078Y-90934880D01*
X144020000Y-92389802D01*
X144020000Y-93972444D01*
X143966869Y-94000220D01*
X143741000Y-94181823D01*
X143554706Y-94403839D01*
X143507400Y-94489889D01*
X143435178Y-94368645D01*
X143240269Y-94152412D01*
X143006920Y-93978359D01*
X142744099Y-93853175D01*
X142596890Y-93808524D01*
X142367000Y-93929845D01*
X142367000Y-95123000D01*
X142387000Y-95123000D01*
X142387000Y-95377000D01*
X142367000Y-95377000D01*
X142367000Y-95397000D01*
X142113000Y-95397000D01*
X142113000Y-95377000D01*
X140919186Y-95377000D01*
X140798519Y-95606891D01*
X140895843Y-95881252D01*
X141044822Y-96131355D01*
X141239731Y-96347588D01*
X141468682Y-96518361D01*
X141426869Y-96540220D01*
X141201000Y-96721823D01*
X141014706Y-96943839D01*
X140875084Y-97197811D01*
X140787451Y-97474066D01*
X140755145Y-97762081D01*
X140755000Y-97782815D01*
X140755000Y-97797185D01*
X140783282Y-98085623D01*
X140867049Y-98363075D01*
X141003112Y-98618971D01*
X141186287Y-98843567D01*
X141409599Y-99028306D01*
X141664539Y-99166152D01*
X141941399Y-99251854D01*
X142229633Y-99282149D01*
X142518261Y-99255882D01*
X142796291Y-99174053D01*
X143053131Y-99039780D01*
X143279000Y-98858177D01*
X143465294Y-98636161D01*
X143509498Y-98555753D01*
X143543112Y-98618971D01*
X143726287Y-98843567D01*
X143949599Y-99028306D01*
X144204539Y-99166152D01*
X144481399Y-99251854D01*
X144769633Y-99282149D01*
X145058261Y-99255882D01*
X145063478Y-99254346D01*
X146094566Y-100285434D01*
X146154182Y-100334404D01*
X146213253Y-100383970D01*
X146217096Y-100386083D01*
X146220493Y-100388873D01*
X146288526Y-100425352D01*
X146356059Y-100462478D01*
X146360242Y-100463805D01*
X146364114Y-100465881D01*
X146437893Y-100488437D01*
X146511394Y-100511753D01*
X146515758Y-100512242D01*
X146519956Y-100513526D01*
X146596716Y-100521324D01*
X146673342Y-100529919D01*
X146681913Y-100529979D01*
X146682085Y-100529996D01*
X146682245Y-100529981D01*
X146685000Y-100530000D01*
X147955000Y-100530000D01*
X148031747Y-100522475D01*
X148108600Y-100515751D01*
X148112814Y-100514527D01*
X148117186Y-100514098D01*
X148191081Y-100491788D01*
X148265092Y-100470285D01*
X148268986Y-100468266D01*
X148273194Y-100466996D01*
X148341311Y-100430777D01*
X148409774Y-100395290D01*
X148413207Y-100392549D01*
X148417082Y-100390489D01*
X148476866Y-100341731D01*
X148537133Y-100293620D01*
X148543238Y-100287600D01*
X148543370Y-100287492D01*
X148543471Y-100287369D01*
X148545434Y-100285434D01*
X149581554Y-99249314D01*
X149683319Y-99271688D01*
X149974479Y-99277787D01*
X150261278Y-99227217D01*
X150532793Y-99121903D01*
X150778681Y-98965858D01*
X150989577Y-98765024D01*
X151088353Y-98625000D01*
X151419132Y-98625000D01*
X152888058Y-100093926D01*
X152872043Y-100169268D01*
X152868114Y-100450659D01*
X152918915Y-100727453D01*
X153022512Y-100989109D01*
X153174959Y-101225660D01*
X153370448Y-101428095D01*
X153470000Y-101497285D01*
X153470000Y-103794132D01*
X151419132Y-105845000D01*
X151028153Y-105845000D01*
X150977426Y-105768650D01*
X150779129Y-105568964D01*
X150574641Y-105431035D01*
X150601514Y-105416671D01*
X150673097Y-105172702D01*
X149860000Y-104359605D01*
X149046903Y-105172702D01*
X149118486Y-105416671D01*
X149148241Y-105430750D01*
X148956473Y-105556239D01*
X148755408Y-105753137D01*
X148692508Y-105845000D01*
X148300868Y-105845000D01*
X146706380Y-104250512D01*
X148419783Y-104250512D01*
X148461213Y-104530130D01*
X148556397Y-104796292D01*
X148623329Y-104921514D01*
X148867298Y-104993097D01*
X149680395Y-104180000D01*
X150039605Y-104180000D01*
X150852702Y-104993097D01*
X151096671Y-104921514D01*
X151217571Y-104666004D01*
X151286300Y-104391816D01*
X151300217Y-104109488D01*
X151258787Y-103829870D01*
X151163603Y-103563708D01*
X151096671Y-103438486D01*
X150852702Y-103366903D01*
X150039605Y-104180000D01*
X149680395Y-104180000D01*
X148867298Y-103366903D01*
X148623329Y-103438486D01*
X148502429Y-103693996D01*
X148433700Y-103968184D01*
X148419783Y-104250512D01*
X146706380Y-104250512D01*
X145643166Y-103187298D01*
X149046903Y-103187298D01*
X149860000Y-104000395D01*
X150673097Y-103187298D01*
X150601514Y-102943329D01*
X150346004Y-102822429D01*
X150071816Y-102753700D01*
X149789488Y-102739783D01*
X149509870Y-102781213D01*
X149243708Y-102876397D01*
X149118486Y-102943329D01*
X149046903Y-103187298D01*
X145643166Y-103187298D01*
X144100434Y-101644566D01*
X144040818Y-101595596D01*
X143981747Y-101546030D01*
X143977904Y-101543917D01*
X143974507Y-101541127D01*
X143906474Y-101504648D01*
X143838941Y-101467522D01*
X143834758Y-101466195D01*
X143830886Y-101464119D01*
X143757107Y-101441563D01*
X143683606Y-101418247D01*
X143679242Y-101417758D01*
X143675044Y-101416474D01*
X143598284Y-101408676D01*
X143521658Y-101400081D01*
X143513087Y-101400021D01*
X143512915Y-101400004D01*
X143512755Y-101400019D01*
X143510000Y-101400000D01*
X139700000Y-101400000D01*
X139623208Y-101407529D01*
X139546400Y-101414249D01*
X139542186Y-101415473D01*
X139537814Y-101415902D01*
X139463933Y-101438208D01*
X139389907Y-101459715D01*
X139386011Y-101461734D01*
X139381806Y-101463004D01*
X139313707Y-101499213D01*
X139245226Y-101534710D01*
X139241793Y-101537451D01*
X139237918Y-101539511D01*
X139178134Y-101588269D01*
X139117867Y-101636380D01*
X139111762Y-101642400D01*
X139111630Y-101642508D01*
X139111529Y-101642631D01*
X139109566Y-101644566D01*
X136742042Y-104012090D01*
X136765597Y-103955223D01*
X136790000Y-103832542D01*
X136790000Y-103155750D01*
X136631250Y-102997000D01*
X135382000Y-102997000D01*
X135382000Y-103017000D01*
X135128000Y-103017000D01*
X135128000Y-102997000D01*
X133878750Y-102997000D01*
X133720000Y-103155750D01*
X133720000Y-103832542D01*
X133744403Y-103955223D01*
X133792270Y-104070785D01*
X133861763Y-104174789D01*
X133950211Y-104263237D01*
X134054215Y-104332730D01*
X134131579Y-104364775D01*
X133988451Y-104535349D01*
X133844127Y-104797872D01*
X133753543Y-105083429D01*
X133720150Y-105381141D01*
X133720000Y-105402573D01*
X133720000Y-105417427D01*
X133749234Y-105715577D01*
X133835822Y-106002370D01*
X133976466Y-106266883D01*
X134165809Y-106499041D01*
X134385907Y-106681122D01*
X134181017Y-106845857D01*
X133988451Y-107075349D01*
X133844127Y-107337872D01*
X133753543Y-107623429D01*
X133720150Y-107921141D01*
X133720000Y-107942573D01*
X133720000Y-107957427D01*
X133749234Y-108255577D01*
X133835822Y-108542370D01*
X133976466Y-108806883D01*
X134165809Y-109039041D01*
X134396639Y-109230000D01*
X134660164Y-109372487D01*
X134946345Y-109461075D01*
X135244284Y-109492390D01*
X135542630Y-109465238D01*
X135830021Y-109380654D01*
X136095510Y-109241860D01*
X136328983Y-109054143D01*
X136521549Y-108824651D01*
X136665873Y-108562128D01*
X136756457Y-108276571D01*
X136789850Y-107978859D01*
X136790000Y-107957427D01*
X136790000Y-107942573D01*
X136760766Y-107644423D01*
X136757227Y-107632702D01*
X141426903Y-107632702D01*
X141498486Y-107876671D01*
X141753996Y-107997571D01*
X142028184Y-108066300D01*
X142310512Y-108080217D01*
X142590130Y-108038787D01*
X142856292Y-107943603D01*
X142981514Y-107876671D01*
X143053097Y-107632702D01*
X142240000Y-106819605D01*
X141426903Y-107632702D01*
X136757227Y-107632702D01*
X136756285Y-107629583D01*
X137675356Y-106710512D01*
X140799783Y-106710512D01*
X140841213Y-106990130D01*
X140936397Y-107256292D01*
X141003329Y-107381514D01*
X141247298Y-107453097D01*
X142060395Y-106640000D01*
X142419605Y-106640000D01*
X143232702Y-107453097D01*
X143476671Y-107381514D01*
X143597571Y-107126004D01*
X143666300Y-106851816D01*
X143680217Y-106569488D01*
X143638787Y-106289870D01*
X143543603Y-106023708D01*
X143476671Y-105898486D01*
X143232702Y-105826903D01*
X142419605Y-106640000D01*
X142060395Y-106640000D01*
X141247298Y-105826903D01*
X141003329Y-105898486D01*
X140882429Y-106153996D01*
X140813700Y-106428184D01*
X140799783Y-106710512D01*
X137675356Y-106710512D01*
X139410868Y-104975000D01*
X141070866Y-104975000D01*
X141109959Y-105035660D01*
X141305448Y-105238095D01*
X141523755Y-105389822D01*
X141498486Y-105403329D01*
X141426903Y-105647298D01*
X142240000Y-106460395D01*
X143053097Y-105647298D01*
X142981514Y-105403329D01*
X142950589Y-105388696D01*
X143127749Y-105276267D01*
X143300700Y-105111568D01*
X143945000Y-105755868D01*
X143945000Y-107604132D01*
X142919566Y-108629566D01*
X142870596Y-108689182D01*
X142821030Y-108748253D01*
X142818917Y-108752096D01*
X142816127Y-108755493D01*
X142779648Y-108823526D01*
X142742522Y-108891059D01*
X142741195Y-108895242D01*
X142739119Y-108899114D01*
X142716563Y-108972893D01*
X142693247Y-109046394D01*
X142692758Y-109050758D01*
X142691474Y-109054956D01*
X142683676Y-109131716D01*
X142675081Y-109208342D01*
X142675021Y-109216913D01*
X142675004Y-109217085D01*
X142675019Y-109217245D01*
X142675000Y-109220000D01*
X142675000Y-113239236D01*
X142632461Y-113256423D01*
X142323137Y-113458840D01*
X142059019Y-113717482D01*
X141850169Y-114022500D01*
X141704542Y-114362275D01*
X141627683Y-114723864D01*
X141622522Y-115093496D01*
X141689254Y-115457091D01*
X141825338Y-115800799D01*
X142025590Y-116111529D01*
X142282382Y-116377446D01*
X142585935Y-116588420D01*
X142924684Y-116736416D01*
X143285729Y-116815797D01*
X143655315Y-116823539D01*
X144019367Y-116759346D01*
X144364017Y-116625666D01*
X144676137Y-116427588D01*
X144943840Y-116172658D01*
X145156929Y-115870586D01*
X145307286Y-115532877D01*
X145378199Y-115220750D01*
X146625000Y-115220750D01*
X146625000Y-116247542D01*
X146649403Y-116370223D01*
X146697270Y-116485785D01*
X146766763Y-116589789D01*
X146855211Y-116678237D01*
X146959215Y-116747730D01*
X147074777Y-116795597D01*
X147197458Y-116820000D01*
X148224250Y-116820000D01*
X148383000Y-116661250D01*
X148383000Y-115062000D01*
X148637000Y-115062000D01*
X148637000Y-116661250D01*
X148795750Y-116820000D01*
X149822542Y-116820000D01*
X149945223Y-116795597D01*
X150060785Y-116747730D01*
X150164789Y-116678237D01*
X150253237Y-116589789D01*
X150322730Y-116485785D01*
X150370597Y-116370223D01*
X150395000Y-116247542D01*
X150395000Y-115220750D01*
X150297175Y-115122925D01*
X154607062Y-115122925D01*
X154686185Y-115554030D01*
X154847536Y-115961557D01*
X155084970Y-116329982D01*
X155389443Y-116645273D01*
X155749358Y-116895421D01*
X156151005Y-117070896D01*
X156579087Y-117165016D01*
X157017297Y-117174195D01*
X157448944Y-117098084D01*
X157857587Y-116939582D01*
X158227661Y-116704726D01*
X158545070Y-116402461D01*
X158797724Y-116044302D01*
X158975999Y-115643889D01*
X159073105Y-115216475D01*
X159080096Y-114715847D01*
X158994962Y-114285888D01*
X158827936Y-113880654D01*
X158585381Y-113515580D01*
X158276536Y-113204571D01*
X157913164Y-112959473D01*
X157509105Y-112789622D01*
X157079751Y-112701489D01*
X156641456Y-112698429D01*
X156210914Y-112780559D01*
X155804523Y-112944752D01*
X155437764Y-113184752D01*
X155124607Y-113491419D01*
X154876978Y-113853071D01*
X154704311Y-114255933D01*
X154613182Y-114684662D01*
X154607062Y-115122925D01*
X150297175Y-115122925D01*
X150236250Y-115062000D01*
X148637000Y-115062000D01*
X148383000Y-115062000D01*
X146783750Y-115062000D01*
X146625000Y-115220750D01*
X145378199Y-115220750D01*
X145389185Y-115172396D01*
X145395081Y-114750166D01*
X145323279Y-114387539D01*
X145182410Y-114045764D01*
X144977839Y-113737860D01*
X144863240Y-113622458D01*
X146625000Y-113622458D01*
X146625000Y-114649250D01*
X146783750Y-114808000D01*
X148383000Y-114808000D01*
X148383000Y-113208750D01*
X148637000Y-113208750D01*
X148637000Y-114808000D01*
X150236250Y-114808000D01*
X150395000Y-114649250D01*
X150395000Y-113622458D01*
X150370597Y-113499777D01*
X150322730Y-113384215D01*
X150253237Y-113280211D01*
X150164789Y-113191763D01*
X150060785Y-113122270D01*
X149945223Y-113074403D01*
X149822542Y-113050000D01*
X148795750Y-113050000D01*
X148637000Y-113208750D01*
X148383000Y-113208750D01*
X148224250Y-113050000D01*
X147197458Y-113050000D01*
X147074777Y-113074403D01*
X146959215Y-113122270D01*
X146855211Y-113191763D01*
X146766763Y-113280211D01*
X146697270Y-113384215D01*
X146649403Y-113499777D01*
X146625000Y-113622458D01*
X144863240Y-113622458D01*
X144717358Y-113475555D01*
X144410890Y-113268839D01*
X144345000Y-113241141D01*
X144345000Y-109565868D01*
X145370434Y-108540434D01*
X145419382Y-108480845D01*
X145468970Y-108421747D01*
X145471085Y-108417900D01*
X145473872Y-108414507D01*
X145510341Y-108346494D01*
X145547478Y-108278941D01*
X145548804Y-108274760D01*
X145550881Y-108270887D01*
X145573441Y-108197093D01*
X145596753Y-108123606D01*
X145597242Y-108119242D01*
X145598526Y-108115044D01*
X145606319Y-108038329D01*
X145614919Y-107961658D01*
X145614979Y-107953076D01*
X145614995Y-107952915D01*
X145614981Y-107952765D01*
X145615000Y-107950000D01*
X145615000Y-105520868D01*
X147364566Y-107270434D01*
X147424155Y-107319382D01*
X147483253Y-107368970D01*
X147487100Y-107371085D01*
X147490493Y-107373872D01*
X147558506Y-107410341D01*
X147626059Y-107447478D01*
X147630240Y-107448804D01*
X147634113Y-107450881D01*
X147707907Y-107473441D01*
X147781394Y-107496753D01*
X147785758Y-107497242D01*
X147789956Y-107498526D01*
X147866671Y-107506319D01*
X147943342Y-107514919D01*
X147951924Y-107514979D01*
X147952085Y-107514995D01*
X147952235Y-107514981D01*
X147955000Y-107515000D01*
X148690866Y-107515000D01*
X148729959Y-107575660D01*
X148925448Y-107778095D01*
X149156534Y-107938704D01*
X149414415Y-108051369D01*
X149689268Y-108111800D01*
X149970624Y-108117693D01*
X150247767Y-108068826D01*
X150510140Y-107967058D01*
X150747749Y-107816267D01*
X150951544Y-107622195D01*
X151027162Y-107515000D01*
X151765000Y-107515000D01*
X151841747Y-107507475D01*
X151918600Y-107500751D01*
X151922814Y-107499527D01*
X151927186Y-107499098D01*
X152001081Y-107476788D01*
X152075092Y-107455285D01*
X152078986Y-107453266D01*
X152083194Y-107451996D01*
X152151311Y-107415777D01*
X152219774Y-107380290D01*
X152223207Y-107377549D01*
X152227082Y-107375489D01*
X152286866Y-107326731D01*
X152347133Y-107278620D01*
X152353238Y-107272600D01*
X152353370Y-107272492D01*
X152353471Y-107272369D01*
X152355434Y-107270434D01*
X154895434Y-104730434D01*
X154944382Y-104670845D01*
X154993970Y-104611747D01*
X154996085Y-104607900D01*
X154998872Y-104604507D01*
X155035321Y-104536529D01*
X155072478Y-104468941D01*
X155073806Y-104464756D01*
X155075880Y-104460887D01*
X155098427Y-104387139D01*
X155121753Y-104313606D01*
X155122243Y-104309242D01*
X155123526Y-104305044D01*
X155131319Y-104228329D01*
X155139919Y-104151658D01*
X155139979Y-104143076D01*
X155139995Y-104142915D01*
X155139981Y-104142765D01*
X155140000Y-104140000D01*
X155140000Y-101499742D01*
X155192749Y-101466267D01*
X155396544Y-101272195D01*
X155472162Y-101165000D01*
X156945866Y-101165000D01*
X156984959Y-101225660D01*
X157180448Y-101428095D01*
X157411534Y-101588704D01*
X157669415Y-101701369D01*
X157944268Y-101761800D01*
X158225624Y-101767693D01*
X158502767Y-101718826D01*
X158752000Y-101622155D01*
X158752000Y-104333198D01*
X155941144Y-107144054D01*
X155873601Y-107123146D01*
X155585367Y-107092851D01*
X155296739Y-107119118D01*
X155018709Y-107200947D01*
X154761869Y-107335220D01*
X154536000Y-107516823D01*
X154349706Y-107738839D01*
X154210084Y-107992811D01*
X154122451Y-108269066D01*
X154090145Y-108557081D01*
X154090000Y-108577815D01*
X154090000Y-108592185D01*
X154118282Y-108880623D01*
X154202049Y-109158075D01*
X154338112Y-109413971D01*
X154521287Y-109638567D01*
X154744599Y-109823306D01*
X154999539Y-109961152D01*
X155276399Y-110046854D01*
X155564633Y-110077149D01*
X155853261Y-110050882D01*
X156131291Y-109969053D01*
X156388131Y-109834780D01*
X156614000Y-109653177D01*
X156800294Y-109431161D01*
X156843235Y-109353052D01*
X156945584Y-109511867D01*
X157147885Y-109721356D01*
X157387023Y-109887561D01*
X157653889Y-110004152D01*
X157938319Y-110066688D01*
X158229479Y-110072787D01*
X158516278Y-110022217D01*
X158787793Y-109916903D01*
X159033681Y-109760858D01*
X159244577Y-109560024D01*
X159412447Y-109322053D01*
X159530899Y-109056007D01*
X159595419Y-108772020D01*
X159600063Y-108439388D01*
X159543498Y-108153711D01*
X159432521Y-107884462D01*
X159271361Y-107641895D01*
X159131125Y-107500677D01*
X160557401Y-106074401D01*
X160580000Y-106046889D01*
X160580000Y-118670000D01*
X131520000Y-118670000D01*
X131520000Y-115122925D01*
X133017062Y-115122925D01*
X133096185Y-115554030D01*
X133257536Y-115961557D01*
X133494970Y-116329982D01*
X133799443Y-116645273D01*
X134159358Y-116895421D01*
X134561005Y-117070896D01*
X134989087Y-117165016D01*
X135427297Y-117174195D01*
X135858944Y-117098084D01*
X136267587Y-116939582D01*
X136637661Y-116704726D01*
X136955070Y-116402461D01*
X137207724Y-116044302D01*
X137385999Y-115643889D01*
X137483105Y-115216475D01*
X137490096Y-114715847D01*
X137404962Y-114285888D01*
X137237936Y-113880654D01*
X136995381Y-113515580D01*
X136686536Y-113204571D01*
X136323164Y-112959473D01*
X135919105Y-112789622D01*
X135489751Y-112701489D01*
X135051456Y-112698429D01*
X134620914Y-112780559D01*
X134214523Y-112944752D01*
X133847764Y-113184752D01*
X133534607Y-113491419D01*
X133286978Y-113853071D01*
X133114311Y-114255933D01*
X133023182Y-114684662D01*
X133017062Y-115122925D01*
X131520000Y-115122925D01*
X131520000Y-101907458D01*
X133720000Y-101907458D01*
X133720000Y-102584250D01*
X133878750Y-102743000D01*
X135128000Y-102743000D01*
X135128000Y-101493750D01*
X135382000Y-101493750D01*
X135382000Y-102743000D01*
X136631250Y-102743000D01*
X136790000Y-102584250D01*
X136790000Y-101907458D01*
X136765597Y-101784777D01*
X136717730Y-101669215D01*
X136648237Y-101565211D01*
X136559789Y-101476763D01*
X136455785Y-101407270D01*
X136340223Y-101359403D01*
X136217542Y-101335000D01*
X135540750Y-101335000D01*
X135382000Y-101493750D01*
X135128000Y-101493750D01*
X134969250Y-101335000D01*
X134292458Y-101335000D01*
X134169777Y-101359403D01*
X134054215Y-101407270D01*
X133950211Y-101476763D01*
X133861763Y-101565211D01*
X133792270Y-101669215D01*
X133744403Y-101784777D01*
X133720000Y-101907458D01*
X131520000Y-101907458D01*
X131520000Y-94893109D01*
X140798519Y-94893109D01*
X140919186Y-95123000D01*
X142113000Y-95123000D01*
X142113000Y-93929845D01*
X141883110Y-93808524D01*
X141735901Y-93853175D01*
X141473080Y-93978359D01*
X141239731Y-94152412D01*
X141044822Y-94368645D01*
X140895843Y-94618748D01*
X140798519Y-94893109D01*
X131520000Y-94893109D01*
X131520000Y-86547925D01*
X133017062Y-86547925D01*
X133096185Y-86979030D01*
X133257536Y-87386557D01*
X133494970Y-87754982D01*
X133799443Y-88070273D01*
X134159358Y-88320421D01*
X134561005Y-88495896D01*
X134989087Y-88590016D01*
X135427297Y-88599195D01*
X135858944Y-88523084D01*
X136267587Y-88364582D01*
X136637661Y-88129726D01*
X136955070Y-87827461D01*
X137207724Y-87469302D01*
X137385999Y-87068889D01*
X137483105Y-86641475D01*
X137490096Y-86140847D01*
X137404962Y-85710888D01*
X137237936Y-85305654D01*
X136995381Y-84940580D01*
X136686536Y-84629571D01*
X136323164Y-84384473D01*
X135919105Y-84214622D01*
X135489751Y-84126489D01*
X135051456Y-84123429D01*
X134620914Y-84205559D01*
X134214523Y-84369752D01*
X133847764Y-84609752D01*
X133534607Y-84916419D01*
X133286978Y-85278071D01*
X133114311Y-85680933D01*
X133023182Y-86109662D01*
X133017062Y-86547925D01*
X131520000Y-86547925D01*
X131520000Y-82625000D01*
X160580000Y-82625000D01*
X160580000Y-98676130D01*
X160580000Y-98676130D01*
G37*
X160580000Y-98676130D02*
X160564852Y-98657154D01*
X160559369Y-98651594D01*
X160559274Y-98651478D01*
X160559166Y-98651389D01*
X160557401Y-98649599D01*
X158875000Y-96967198D01*
X158875000Y-93931163D01*
X158900753Y-93917700D01*
X159119017Y-93742211D01*
X159299038Y-93527671D01*
X159433959Y-93282250D01*
X159518642Y-93015296D01*
X159549860Y-92736979D01*
X159550000Y-92716943D01*
X159550000Y-92703057D01*
X159522671Y-92424331D01*
X159441724Y-92156221D01*
X159310242Y-91908940D01*
X159133234Y-91691907D01*
X158917442Y-91513388D01*
X158671085Y-91380183D01*
X158403547Y-91297367D01*
X158125018Y-91268092D01*
X157846108Y-91293475D01*
X157789838Y-91310036D01*
X153027727Y-86547925D01*
X154607062Y-86547925D01*
X154686185Y-86979030D01*
X154847536Y-87386557D01*
X155084970Y-87754982D01*
X155389443Y-88070273D01*
X155749358Y-88320421D01*
X156151005Y-88495896D01*
X156579087Y-88590016D01*
X157017297Y-88599195D01*
X157448944Y-88523084D01*
X157857587Y-88364582D01*
X158227661Y-88129726D01*
X158545070Y-87827461D01*
X158797724Y-87469302D01*
X158975999Y-87068889D01*
X159073105Y-86641475D01*
X159080096Y-86140847D01*
X158994962Y-85710888D01*
X158827936Y-85305654D01*
X158585381Y-84940580D01*
X158276536Y-84629571D01*
X157913164Y-84384473D01*
X157509105Y-84214622D01*
X157079751Y-84126489D01*
X156641456Y-84123429D01*
X156210914Y-84205559D01*
X155804523Y-84369752D01*
X155437764Y-84609752D01*
X155124607Y-84916419D01*
X154876978Y-85278071D01*
X154704311Y-85680933D01*
X154613182Y-86109662D01*
X154607062Y-86547925D01*
X153027727Y-86547925D01*
X152302401Y-85822599D01*
X152248145Y-85778032D01*
X152194375Y-85732914D01*
X152190874Y-85730989D01*
X152187785Y-85728452D01*
X152125933Y-85695287D01*
X152064396Y-85661457D01*
X152060584Y-85660248D01*
X152057065Y-85658361D01*
X151989969Y-85637848D01*
X151923013Y-85616608D01*
X151919041Y-85616162D01*
X151915219Y-85614994D01*
X151845351Y-85607897D01*
X151775611Y-85600074D01*
X151767806Y-85600020D01*
X151767653Y-85600004D01*
X151767510Y-85600018D01*
X151765000Y-85600000D01*
X151077982Y-85600000D01*
X150977426Y-85448650D01*
X150779129Y-85248964D01*
X150545823Y-85091597D01*
X150286394Y-84982543D01*
X150010724Y-84925956D01*
X149729313Y-84923991D01*
X149452880Y-84976724D01*
X149191954Y-85082145D01*
X148956473Y-85236239D01*
X148755408Y-85433137D01*
X148596416Y-85665339D01*
X148485553Y-85924000D01*
X148427043Y-86199268D01*
X148423114Y-86480659D01*
X148473915Y-86757453D01*
X148577512Y-87019109D01*
X148729959Y-87255660D01*
X148925448Y-87458095D01*
X149156534Y-87618704D01*
X149414415Y-87731369D01*
X149689268Y-87791800D01*
X149970624Y-87797693D01*
X150247767Y-87748826D01*
X150510140Y-87647058D01*
X150747749Y-87496267D01*
X150951544Y-87302195D01*
X151080068Y-87120000D01*
X151450198Y-87120000D01*
X156717028Y-92386830D01*
X156711358Y-92404704D01*
X156680140Y-92683021D01*
X156680000Y-92703057D01*
X156680000Y-92716943D01*
X156707329Y-92995669D01*
X156788276Y-93263779D01*
X156919758Y-93511060D01*
X157096766Y-93728093D01*
X157312558Y-93906612D01*
X157355000Y-93929560D01*
X157355000Y-96209198D01*
X155072858Y-93927056D01*
X155090753Y-93917700D01*
X155309017Y-93742211D01*
X155489038Y-93527671D01*
X155623959Y-93282250D01*
X155708642Y-93015296D01*
X155739860Y-92736979D01*
X155740000Y-92716943D01*
X155740000Y-92703057D01*
X155712671Y-92424331D01*
X155631724Y-92156221D01*
X155500242Y-91908940D01*
X155323234Y-91691907D01*
X155107442Y-91513388D01*
X154861085Y-91380183D01*
X154593547Y-91297367D01*
X154315018Y-91268092D01*
X154036108Y-91293475D01*
X153979838Y-91310036D01*
X151667401Y-88997599D01*
X151613145Y-88953032D01*
X151559375Y-88907914D01*
X151555874Y-88905989D01*
X151552785Y-88903452D01*
X151490933Y-88870287D01*
X151429396Y-88836457D01*
X151425584Y-88835248D01*
X151422065Y-88833361D01*
X151354969Y-88812848D01*
X151288013Y-88791608D01*
X151284041Y-88791162D01*
X151280219Y-88789994D01*
X151210351Y-88782897D01*
X151140611Y-88775074D01*
X151132806Y-88775020D01*
X151132653Y-88775004D01*
X151132510Y-88775018D01*
X151130000Y-88775000D01*
X151081163Y-88775000D01*
X151067700Y-88749247D01*
X150892211Y-88530983D01*
X150677671Y-88350962D01*
X150432250Y-88216041D01*
X150165296Y-88131358D01*
X149886979Y-88100140D01*
X149866943Y-88100000D01*
X149853057Y-88100000D01*
X149574331Y-88127329D01*
X149306221Y-88208276D01*
X149058940Y-88339758D01*
X148841907Y-88516766D01*
X148663388Y-88732558D01*
X148530183Y-88978915D01*
X148447367Y-89246453D01*
X148418092Y-89524982D01*
X148443475Y-89803892D01*
X148522548Y-90072560D01*
X148652300Y-90320753D01*
X148827789Y-90539017D01*
X149042329Y-90719038D01*
X149287750Y-90853959D01*
X149554704Y-90938642D01*
X149833021Y-90969860D01*
X149853057Y-90970000D01*
X149866943Y-90970000D01*
X150145669Y-90942671D01*
X150413779Y-90861724D01*
X150661060Y-90730242D01*
X150878093Y-90553234D01*
X150966530Y-90446332D01*
X152907028Y-92386830D01*
X152901358Y-92404704D01*
X152870140Y-92683021D01*
X152870000Y-92703057D01*
X152870000Y-92716943D01*
X152897329Y-92995669D01*
X152978276Y-93263779D01*
X153109758Y-93511060D01*
X153286766Y-93728093D01*
X153502558Y-93906612D01*
X153545000Y-93929560D01*
X153545000Y-94234000D01*
X153551851Y-94303877D01*
X153557969Y-94373803D01*
X153559084Y-94377641D01*
X153559474Y-94381618D01*
X153579764Y-94448821D01*
X153599351Y-94516240D01*
X153601190Y-94519788D01*
X153602345Y-94523613D01*
X153635299Y-94585591D01*
X153667610Y-94647925D01*
X153670103Y-94651048D01*
X153671980Y-94654578D01*
X153716355Y-94708987D01*
X153760148Y-94763846D01*
X153765631Y-94769406D01*
X153765726Y-94769522D01*
X153765834Y-94769611D01*
X153767599Y-94771401D01*
X157905268Y-98909070D01*
X157707880Y-98946724D01*
X157446954Y-99052145D01*
X157211473Y-99206239D01*
X157010408Y-99403137D01*
X156947508Y-99495000D01*
X155473153Y-99495000D01*
X155422426Y-99418650D01*
X155224129Y-99218964D01*
X154990823Y-99061597D01*
X154731394Y-98952543D01*
X154455724Y-98895956D01*
X154174313Y-98893991D01*
X154069797Y-98913929D01*
X152355434Y-97199566D01*
X152295818Y-97150596D01*
X152236747Y-97101030D01*
X152232904Y-97098917D01*
X152229507Y-97096127D01*
X152161474Y-97059648D01*
X152093941Y-97022522D01*
X152089758Y-97021195D01*
X152085886Y-97019119D01*
X152012107Y-96996563D01*
X151938606Y-96973247D01*
X151934242Y-96972758D01*
X151930044Y-96971474D01*
X151853284Y-96963676D01*
X151776658Y-96955081D01*
X151768087Y-96955021D01*
X151767915Y-96955004D01*
X151767755Y-96955019D01*
X151765000Y-96955000D01*
X151088185Y-96955000D01*
X151016361Y-96846895D01*
X150811155Y-96640252D01*
X150633563Y-96520465D01*
X150673131Y-96499780D01*
X150899000Y-96318177D01*
X151085294Y-96096161D01*
X151224916Y-95842189D01*
X151312549Y-95565934D01*
X151344855Y-95277919D01*
X151345000Y-95257185D01*
X151345000Y-95242815D01*
X151316718Y-94954377D01*
X151232951Y-94676925D01*
X151096888Y-94421029D01*
X150913713Y-94196433D01*
X150690401Y-94011694D01*
X150435461Y-93873848D01*
X150158601Y-93788146D01*
X149870367Y-93757851D01*
X149581739Y-93784118D01*
X149303709Y-93865947D01*
X149046869Y-94000220D01*
X148821000Y-94181823D01*
X148634706Y-94403839D01*
X148590502Y-94484247D01*
X148556888Y-94421029D01*
X148373713Y-94196433D01*
X148150401Y-94011694D01*
X148080000Y-93973628D01*
X148080000Y-91440000D01*
X148073148Y-91370119D01*
X148067031Y-91300197D01*
X148065916Y-91296359D01*
X148065526Y-91292382D01*
X148045246Y-91225212D01*
X148025650Y-91157761D01*
X148023809Y-91154210D01*
X148022655Y-91150387D01*
X147989710Y-91088426D01*
X147957390Y-91026075D01*
X147954897Y-91022952D01*
X147953020Y-91019422D01*
X147908645Y-90965013D01*
X147864852Y-90910154D01*
X147859369Y-90904594D01*
X147859274Y-90904478D01*
X147859166Y-90904389D01*
X147857401Y-90902599D01*
X143640983Y-86686181D01*
X143652633Y-86648547D01*
X143681908Y-86370018D01*
X143656525Y-86091108D01*
X143577452Y-85822440D01*
X143447700Y-85574247D01*
X143272211Y-85355983D01*
X143057671Y-85175962D01*
X142812250Y-85041041D01*
X142545296Y-84956358D01*
X142266979Y-84925140D01*
X142246943Y-84925000D01*
X142233057Y-84925000D01*
X141954331Y-84952329D01*
X141686221Y-85033276D01*
X141438940Y-85164758D01*
X141221907Y-85341766D01*
X141043388Y-85557558D01*
X140910183Y-85803915D01*
X140827367Y-86071453D01*
X140798092Y-86349982D01*
X140823475Y-86628892D01*
X140902548Y-86897560D01*
X141032300Y-87145753D01*
X141207789Y-87364017D01*
X141422329Y-87544038D01*
X141667750Y-87678959D01*
X141934704Y-87763642D01*
X142213021Y-87794860D01*
X142233057Y-87795000D01*
X142246943Y-87795000D01*
X142525669Y-87767671D01*
X142561923Y-87756725D01*
X146560000Y-91754802D01*
X146560000Y-93972444D01*
X146506869Y-94000220D01*
X146281000Y-94181823D01*
X146094706Y-94403839D01*
X146050502Y-94484247D01*
X146016888Y-94421029D01*
X145833713Y-94196433D01*
X145610401Y-94011694D01*
X145540000Y-93973628D01*
X145540000Y-92075000D01*
X145533144Y-92005073D01*
X145527030Y-91935197D01*
X145525916Y-91931364D01*
X145525526Y-91927382D01*
X145505224Y-91860138D01*
X145485649Y-91792760D01*
X145483810Y-91789212D01*
X145482655Y-91785387D01*
X145449691Y-91723390D01*
X145417389Y-91661074D01*
X145414897Y-91657953D01*
X145413020Y-91654422D01*
X145368641Y-91600007D01*
X145324852Y-91545154D01*
X145319369Y-91539594D01*
X145319274Y-91539478D01*
X145319166Y-91539389D01*
X145317401Y-91537599D01*
X143638166Y-89858364D01*
X143670573Y-89715723D01*
X143675061Y-89394291D01*
X143620400Y-89118233D01*
X143513160Y-88858049D01*
X143357426Y-88623650D01*
X143159129Y-88423964D01*
X142925823Y-88266597D01*
X142666394Y-88157543D01*
X142390724Y-88100956D01*
X142109313Y-88098991D01*
X141832880Y-88151724D01*
X141571954Y-88257145D01*
X141336473Y-88411239D01*
X141135408Y-88608137D01*
X140976416Y-88840339D01*
X140865553Y-89099000D01*
X140807043Y-89374268D01*
X140803114Y-89655659D01*
X140853915Y-89932453D01*
X140957512Y-90194109D01*
X141109959Y-90430660D01*
X141305448Y-90633095D01*
X141536534Y-90793704D01*
X141794415Y-90906369D01*
X142069268Y-90966800D01*
X142350624Y-90972693D01*
X142565078Y-90934880D01*
X144020000Y-92389802D01*
X144020000Y-93972444D01*
X143966869Y-94000220D01*
X143741000Y-94181823D01*
X143554706Y-94403839D01*
X143507400Y-94489889D01*
X143435178Y-94368645D01*
X143240269Y-94152412D01*
X143006920Y-93978359D01*
X142744099Y-93853175D01*
X142596890Y-93808524D01*
X142367000Y-93929845D01*
X142367000Y-95123000D01*
X142387000Y-95123000D01*
X142387000Y-95377000D01*
X142367000Y-95377000D01*
X142367000Y-95397000D01*
X142113000Y-95397000D01*
X142113000Y-95377000D01*
X140919186Y-95377000D01*
X140798519Y-95606891D01*
X140895843Y-95881252D01*
X141044822Y-96131355D01*
X141239731Y-96347588D01*
X141468682Y-96518361D01*
X141426869Y-96540220D01*
X141201000Y-96721823D01*
X141014706Y-96943839D01*
X140875084Y-97197811D01*
X140787451Y-97474066D01*
X140755145Y-97762081D01*
X140755000Y-97782815D01*
X140755000Y-97797185D01*
X140783282Y-98085623D01*
X140867049Y-98363075D01*
X141003112Y-98618971D01*
X141186287Y-98843567D01*
X141409599Y-99028306D01*
X141664539Y-99166152D01*
X141941399Y-99251854D01*
X142229633Y-99282149D01*
X142518261Y-99255882D01*
X142796291Y-99174053D01*
X143053131Y-99039780D01*
X143279000Y-98858177D01*
X143465294Y-98636161D01*
X143509498Y-98555753D01*
X143543112Y-98618971D01*
X143726287Y-98843567D01*
X143949599Y-99028306D01*
X144204539Y-99166152D01*
X144481399Y-99251854D01*
X144769633Y-99282149D01*
X145058261Y-99255882D01*
X145063478Y-99254346D01*
X146094566Y-100285434D01*
X146154182Y-100334404D01*
X146213253Y-100383970D01*
X146217096Y-100386083D01*
X146220493Y-100388873D01*
X146288526Y-100425352D01*
X146356059Y-100462478D01*
X146360242Y-100463805D01*
X146364114Y-100465881D01*
X146437893Y-100488437D01*
X146511394Y-100511753D01*
X146515758Y-100512242D01*
X146519956Y-100513526D01*
X146596716Y-100521324D01*
X146673342Y-100529919D01*
X146681913Y-100529979D01*
X146682085Y-100529996D01*
X146682245Y-100529981D01*
X146685000Y-100530000D01*
X147955000Y-100530000D01*
X148031747Y-100522475D01*
X148108600Y-100515751D01*
X148112814Y-100514527D01*
X148117186Y-100514098D01*
X148191081Y-100491788D01*
X148265092Y-100470285D01*
X148268986Y-100468266D01*
X148273194Y-100466996D01*
X148341311Y-100430777D01*
X148409774Y-100395290D01*
X148413207Y-100392549D01*
X148417082Y-100390489D01*
X148476866Y-100341731D01*
X148537133Y-100293620D01*
X148543238Y-100287600D01*
X148543370Y-100287492D01*
X148543471Y-100287369D01*
X148545434Y-100285434D01*
X149581554Y-99249314D01*
X149683319Y-99271688D01*
X149974479Y-99277787D01*
X150261278Y-99227217D01*
X150532793Y-99121903D01*
X150778681Y-98965858D01*
X150989577Y-98765024D01*
X151088353Y-98625000D01*
X151419132Y-98625000D01*
X152888058Y-100093926D01*
X152872043Y-100169268D01*
X152868114Y-100450659D01*
X152918915Y-100727453D01*
X153022512Y-100989109D01*
X153174959Y-101225660D01*
X153370448Y-101428095D01*
X153470000Y-101497285D01*
X153470000Y-103794132D01*
X151419132Y-105845000D01*
X151028153Y-105845000D01*
X150977426Y-105768650D01*
X150779129Y-105568964D01*
X150574641Y-105431035D01*
X150601514Y-105416671D01*
X150673097Y-105172702D01*
X149860000Y-104359605D01*
X149046903Y-105172702D01*
X149118486Y-105416671D01*
X149148241Y-105430750D01*
X148956473Y-105556239D01*
X148755408Y-105753137D01*
X148692508Y-105845000D01*
X148300868Y-105845000D01*
X146706380Y-104250512D01*
X148419783Y-104250512D01*
X148461213Y-104530130D01*
X148556397Y-104796292D01*
X148623329Y-104921514D01*
X148867298Y-104993097D01*
X149680395Y-104180000D01*
X150039605Y-104180000D01*
X150852702Y-104993097D01*
X151096671Y-104921514D01*
X151217571Y-104666004D01*
X151286300Y-104391816D01*
X151300217Y-104109488D01*
X151258787Y-103829870D01*
X151163603Y-103563708D01*
X151096671Y-103438486D01*
X150852702Y-103366903D01*
X150039605Y-104180000D01*
X149680395Y-104180000D01*
X148867298Y-103366903D01*
X148623329Y-103438486D01*
X148502429Y-103693996D01*
X148433700Y-103968184D01*
X148419783Y-104250512D01*
X146706380Y-104250512D01*
X145643166Y-103187298D01*
X149046903Y-103187298D01*
X149860000Y-104000395D01*
X150673097Y-103187298D01*
X150601514Y-102943329D01*
X150346004Y-102822429D01*
X150071816Y-102753700D01*
X149789488Y-102739783D01*
X149509870Y-102781213D01*
X149243708Y-102876397D01*
X149118486Y-102943329D01*
X149046903Y-103187298D01*
X145643166Y-103187298D01*
X144100434Y-101644566D01*
X144040818Y-101595596D01*
X143981747Y-101546030D01*
X143977904Y-101543917D01*
X143974507Y-101541127D01*
X143906474Y-101504648D01*
X143838941Y-101467522D01*
X143834758Y-101466195D01*
X143830886Y-101464119D01*
X143757107Y-101441563D01*
X143683606Y-101418247D01*
X143679242Y-101417758D01*
X143675044Y-101416474D01*
X143598284Y-101408676D01*
X143521658Y-101400081D01*
X143513087Y-101400021D01*
X143512915Y-101400004D01*
X143512755Y-101400019D01*
X143510000Y-101400000D01*
X139700000Y-101400000D01*
X139623208Y-101407529D01*
X139546400Y-101414249D01*
X139542186Y-101415473D01*
X139537814Y-101415902D01*
X139463933Y-101438208D01*
X139389907Y-101459715D01*
X139386011Y-101461734D01*
X139381806Y-101463004D01*
X139313707Y-101499213D01*
X139245226Y-101534710D01*
X139241793Y-101537451D01*
X139237918Y-101539511D01*
X139178134Y-101588269D01*
X139117867Y-101636380D01*
X139111762Y-101642400D01*
X139111630Y-101642508D01*
X139111529Y-101642631D01*
X139109566Y-101644566D01*
X136742042Y-104012090D01*
X136765597Y-103955223D01*
X136790000Y-103832542D01*
X136790000Y-103155750D01*
X136631250Y-102997000D01*
X135382000Y-102997000D01*
X135382000Y-103017000D01*
X135128000Y-103017000D01*
X135128000Y-102997000D01*
X133878750Y-102997000D01*
X133720000Y-103155750D01*
X133720000Y-103832542D01*
X133744403Y-103955223D01*
X133792270Y-104070785D01*
X133861763Y-104174789D01*
X133950211Y-104263237D01*
X134054215Y-104332730D01*
X134131579Y-104364775D01*
X133988451Y-104535349D01*
X133844127Y-104797872D01*
X133753543Y-105083429D01*
X133720150Y-105381141D01*
X133720000Y-105402573D01*
X133720000Y-105417427D01*
X133749234Y-105715577D01*
X133835822Y-106002370D01*
X133976466Y-106266883D01*
X134165809Y-106499041D01*
X134385907Y-106681122D01*
X134181017Y-106845857D01*
X133988451Y-107075349D01*
X133844127Y-107337872D01*
X133753543Y-107623429D01*
X133720150Y-107921141D01*
X133720000Y-107942573D01*
X133720000Y-107957427D01*
X133749234Y-108255577D01*
X133835822Y-108542370D01*
X133976466Y-108806883D01*
X134165809Y-109039041D01*
X134396639Y-109230000D01*
X134660164Y-109372487D01*
X134946345Y-109461075D01*
X135244284Y-109492390D01*
X135542630Y-109465238D01*
X135830021Y-109380654D01*
X136095510Y-109241860D01*
X136328983Y-109054143D01*
X136521549Y-108824651D01*
X136665873Y-108562128D01*
X136756457Y-108276571D01*
X136789850Y-107978859D01*
X136790000Y-107957427D01*
X136790000Y-107942573D01*
X136760766Y-107644423D01*
X136757227Y-107632702D01*
X141426903Y-107632702D01*
X141498486Y-107876671D01*
X141753996Y-107997571D01*
X142028184Y-108066300D01*
X142310512Y-108080217D01*
X142590130Y-108038787D01*
X142856292Y-107943603D01*
X142981514Y-107876671D01*
X143053097Y-107632702D01*
X142240000Y-106819605D01*
X141426903Y-107632702D01*
X136757227Y-107632702D01*
X136756285Y-107629583D01*
X137675356Y-106710512D01*
X140799783Y-106710512D01*
X140841213Y-106990130D01*
X140936397Y-107256292D01*
X141003329Y-107381514D01*
X141247298Y-107453097D01*
X142060395Y-106640000D01*
X142419605Y-106640000D01*
X143232702Y-107453097D01*
X143476671Y-107381514D01*
X143597571Y-107126004D01*
X143666300Y-106851816D01*
X143680217Y-106569488D01*
X143638787Y-106289870D01*
X143543603Y-106023708D01*
X143476671Y-105898486D01*
X143232702Y-105826903D01*
X142419605Y-106640000D01*
X142060395Y-106640000D01*
X141247298Y-105826903D01*
X141003329Y-105898486D01*
X140882429Y-106153996D01*
X140813700Y-106428184D01*
X140799783Y-106710512D01*
X137675356Y-106710512D01*
X139410868Y-104975000D01*
X141070866Y-104975000D01*
X141109959Y-105035660D01*
X141305448Y-105238095D01*
X141523755Y-105389822D01*
X141498486Y-105403329D01*
X141426903Y-105647298D01*
X142240000Y-106460395D01*
X143053097Y-105647298D01*
X142981514Y-105403329D01*
X142950589Y-105388696D01*
X143127749Y-105276267D01*
X143300700Y-105111568D01*
X143945000Y-105755868D01*
X143945000Y-107604132D01*
X142919566Y-108629566D01*
X142870596Y-108689182D01*
X142821030Y-108748253D01*
X142818917Y-108752096D01*
X142816127Y-108755493D01*
X142779648Y-108823526D01*
X142742522Y-108891059D01*
X142741195Y-108895242D01*
X142739119Y-108899114D01*
X142716563Y-108972893D01*
X142693247Y-109046394D01*
X142692758Y-109050758D01*
X142691474Y-109054956D01*
X142683676Y-109131716D01*
X142675081Y-109208342D01*
X142675021Y-109216913D01*
X142675004Y-109217085D01*
X142675019Y-109217245D01*
X142675000Y-109220000D01*
X142675000Y-113239236D01*
X142632461Y-113256423D01*
X142323137Y-113458840D01*
X142059019Y-113717482D01*
X141850169Y-114022500D01*
X141704542Y-114362275D01*
X141627683Y-114723864D01*
X141622522Y-115093496D01*
X141689254Y-115457091D01*
X141825338Y-115800799D01*
X142025590Y-116111529D01*
X142282382Y-116377446D01*
X142585935Y-116588420D01*
X142924684Y-116736416D01*
X143285729Y-116815797D01*
X143655315Y-116823539D01*
X144019367Y-116759346D01*
X144364017Y-116625666D01*
X144676137Y-116427588D01*
X144943840Y-116172658D01*
X145156929Y-115870586D01*
X145307286Y-115532877D01*
X145378199Y-115220750D01*
X146625000Y-115220750D01*
X146625000Y-116247542D01*
X146649403Y-116370223D01*
X146697270Y-116485785D01*
X146766763Y-116589789D01*
X146855211Y-116678237D01*
X146959215Y-116747730D01*
X147074777Y-116795597D01*
X147197458Y-116820000D01*
X148224250Y-116820000D01*
X148383000Y-116661250D01*
X148383000Y-115062000D01*
X148637000Y-115062000D01*
X148637000Y-116661250D01*
X148795750Y-116820000D01*
X149822542Y-116820000D01*
X149945223Y-116795597D01*
X150060785Y-116747730D01*
X150164789Y-116678237D01*
X150253237Y-116589789D01*
X150322730Y-116485785D01*
X150370597Y-116370223D01*
X150395000Y-116247542D01*
X150395000Y-115220750D01*
X150297175Y-115122925D01*
X154607062Y-115122925D01*
X154686185Y-115554030D01*
X154847536Y-115961557D01*
X155084970Y-116329982D01*
X155389443Y-116645273D01*
X155749358Y-116895421D01*
X156151005Y-117070896D01*
X156579087Y-117165016D01*
X157017297Y-117174195D01*
X157448944Y-117098084D01*
X157857587Y-116939582D01*
X158227661Y-116704726D01*
X158545070Y-116402461D01*
X158797724Y-116044302D01*
X158975999Y-115643889D01*
X159073105Y-115216475D01*
X159080096Y-114715847D01*
X158994962Y-114285888D01*
X158827936Y-113880654D01*
X158585381Y-113515580D01*
X158276536Y-113204571D01*
X157913164Y-112959473D01*
X157509105Y-112789622D01*
X157079751Y-112701489D01*
X156641456Y-112698429D01*
X156210914Y-112780559D01*
X155804523Y-112944752D01*
X155437764Y-113184752D01*
X155124607Y-113491419D01*
X154876978Y-113853071D01*
X154704311Y-114255933D01*
X154613182Y-114684662D01*
X154607062Y-115122925D01*
X150297175Y-115122925D01*
X150236250Y-115062000D01*
X148637000Y-115062000D01*
X148383000Y-115062000D01*
X146783750Y-115062000D01*
X146625000Y-115220750D01*
X145378199Y-115220750D01*
X145389185Y-115172396D01*
X145395081Y-114750166D01*
X145323279Y-114387539D01*
X145182410Y-114045764D01*
X144977839Y-113737860D01*
X144863240Y-113622458D01*
X146625000Y-113622458D01*
X146625000Y-114649250D01*
X146783750Y-114808000D01*
X148383000Y-114808000D01*
X148383000Y-113208750D01*
X148637000Y-113208750D01*
X148637000Y-114808000D01*
X150236250Y-114808000D01*
X150395000Y-114649250D01*
X150395000Y-113622458D01*
X150370597Y-113499777D01*
X150322730Y-113384215D01*
X150253237Y-113280211D01*
X150164789Y-113191763D01*
X150060785Y-113122270D01*
X149945223Y-113074403D01*
X149822542Y-113050000D01*
X148795750Y-113050000D01*
X148637000Y-113208750D01*
X148383000Y-113208750D01*
X148224250Y-113050000D01*
X147197458Y-113050000D01*
X147074777Y-113074403D01*
X146959215Y-113122270D01*
X146855211Y-113191763D01*
X146766763Y-113280211D01*
X146697270Y-113384215D01*
X146649403Y-113499777D01*
X146625000Y-113622458D01*
X144863240Y-113622458D01*
X144717358Y-113475555D01*
X144410890Y-113268839D01*
X144345000Y-113241141D01*
X144345000Y-109565868D01*
X145370434Y-108540434D01*
X145419382Y-108480845D01*
X145468970Y-108421747D01*
X145471085Y-108417900D01*
X145473872Y-108414507D01*
X145510341Y-108346494D01*
X145547478Y-108278941D01*
X145548804Y-108274760D01*
X145550881Y-108270887D01*
X145573441Y-108197093D01*
X145596753Y-108123606D01*
X145597242Y-108119242D01*
X145598526Y-108115044D01*
X145606319Y-108038329D01*
X145614919Y-107961658D01*
X145614979Y-107953076D01*
X145614995Y-107952915D01*
X145614981Y-107952765D01*
X145615000Y-107950000D01*
X145615000Y-105520868D01*
X147364566Y-107270434D01*
X147424155Y-107319382D01*
X147483253Y-107368970D01*
X147487100Y-107371085D01*
X147490493Y-107373872D01*
X147558506Y-107410341D01*
X147626059Y-107447478D01*
X147630240Y-107448804D01*
X147634113Y-107450881D01*
X147707907Y-107473441D01*
X147781394Y-107496753D01*
X147785758Y-107497242D01*
X147789956Y-107498526D01*
X147866671Y-107506319D01*
X147943342Y-107514919D01*
X147951924Y-107514979D01*
X147952085Y-107514995D01*
X147952235Y-107514981D01*
X147955000Y-107515000D01*
X148690866Y-107515000D01*
X148729959Y-107575660D01*
X148925448Y-107778095D01*
X149156534Y-107938704D01*
X149414415Y-108051369D01*
X149689268Y-108111800D01*
X149970624Y-108117693D01*
X150247767Y-108068826D01*
X150510140Y-107967058D01*
X150747749Y-107816267D01*
X150951544Y-107622195D01*
X151027162Y-107515000D01*
X151765000Y-107515000D01*
X151841747Y-107507475D01*
X151918600Y-107500751D01*
X151922814Y-107499527D01*
X151927186Y-107499098D01*
X152001081Y-107476788D01*
X152075092Y-107455285D01*
X152078986Y-107453266D01*
X152083194Y-107451996D01*
X152151311Y-107415777D01*
X152219774Y-107380290D01*
X152223207Y-107377549D01*
X152227082Y-107375489D01*
X152286866Y-107326731D01*
X152347133Y-107278620D01*
X152353238Y-107272600D01*
X152353370Y-107272492D01*
X152353471Y-107272369D01*
X152355434Y-107270434D01*
X154895434Y-104730434D01*
X154944382Y-104670845D01*
X154993970Y-104611747D01*
X154996085Y-104607900D01*
X154998872Y-104604507D01*
X155035321Y-104536529D01*
X155072478Y-104468941D01*
X155073806Y-104464756D01*
X155075880Y-104460887D01*
X155098427Y-104387139D01*
X155121753Y-104313606D01*
X155122243Y-104309242D01*
X155123526Y-104305044D01*
X155131319Y-104228329D01*
X155139919Y-104151658D01*
X155139979Y-104143076D01*
X155139995Y-104142915D01*
X155139981Y-104142765D01*
X155140000Y-104140000D01*
X155140000Y-101499742D01*
X155192749Y-101466267D01*
X155396544Y-101272195D01*
X155472162Y-101165000D01*
X156945866Y-101165000D01*
X156984959Y-101225660D01*
X157180448Y-101428095D01*
X157411534Y-101588704D01*
X157669415Y-101701369D01*
X157944268Y-101761800D01*
X158225624Y-101767693D01*
X158502767Y-101718826D01*
X158752000Y-101622155D01*
X158752000Y-104333198D01*
X155941144Y-107144054D01*
X155873601Y-107123146D01*
X155585367Y-107092851D01*
X155296739Y-107119118D01*
X155018709Y-107200947D01*
X154761869Y-107335220D01*
X154536000Y-107516823D01*
X154349706Y-107738839D01*
X154210084Y-107992811D01*
X154122451Y-108269066D01*
X154090145Y-108557081D01*
X154090000Y-108577815D01*
X154090000Y-108592185D01*
X154118282Y-108880623D01*
X154202049Y-109158075D01*
X154338112Y-109413971D01*
X154521287Y-109638567D01*
X154744599Y-109823306D01*
X154999539Y-109961152D01*
X155276399Y-110046854D01*
X155564633Y-110077149D01*
X155853261Y-110050882D01*
X156131291Y-109969053D01*
X156388131Y-109834780D01*
X156614000Y-109653177D01*
X156800294Y-109431161D01*
X156843235Y-109353052D01*
X156945584Y-109511867D01*
X157147885Y-109721356D01*
X157387023Y-109887561D01*
X157653889Y-110004152D01*
X157938319Y-110066688D01*
X158229479Y-110072787D01*
X158516278Y-110022217D01*
X158787793Y-109916903D01*
X159033681Y-109760858D01*
X159244577Y-109560024D01*
X159412447Y-109322053D01*
X159530899Y-109056007D01*
X159595419Y-108772020D01*
X159600063Y-108439388D01*
X159543498Y-108153711D01*
X159432521Y-107884462D01*
X159271361Y-107641895D01*
X159131125Y-107500677D01*
X160557401Y-106074401D01*
X160580000Y-106046889D01*
X160580000Y-118670000D01*
X131520000Y-118670000D01*
X131520000Y-115122925D01*
X133017062Y-115122925D01*
X133096185Y-115554030D01*
X133257536Y-115961557D01*
X133494970Y-116329982D01*
X133799443Y-116645273D01*
X134159358Y-116895421D01*
X134561005Y-117070896D01*
X134989087Y-117165016D01*
X135427297Y-117174195D01*
X135858944Y-117098084D01*
X136267587Y-116939582D01*
X136637661Y-116704726D01*
X136955070Y-116402461D01*
X137207724Y-116044302D01*
X137385999Y-115643889D01*
X137483105Y-115216475D01*
X137490096Y-114715847D01*
X137404962Y-114285888D01*
X137237936Y-113880654D01*
X136995381Y-113515580D01*
X136686536Y-113204571D01*
X136323164Y-112959473D01*
X135919105Y-112789622D01*
X135489751Y-112701489D01*
X135051456Y-112698429D01*
X134620914Y-112780559D01*
X134214523Y-112944752D01*
X133847764Y-113184752D01*
X133534607Y-113491419D01*
X133286978Y-113853071D01*
X133114311Y-114255933D01*
X133023182Y-114684662D01*
X133017062Y-115122925D01*
X131520000Y-115122925D01*
X131520000Y-101907458D01*
X133720000Y-101907458D01*
X133720000Y-102584250D01*
X133878750Y-102743000D01*
X135128000Y-102743000D01*
X135128000Y-101493750D01*
X135382000Y-101493750D01*
X135382000Y-102743000D01*
X136631250Y-102743000D01*
X136790000Y-102584250D01*
X136790000Y-101907458D01*
X136765597Y-101784777D01*
X136717730Y-101669215D01*
X136648237Y-101565211D01*
X136559789Y-101476763D01*
X136455785Y-101407270D01*
X136340223Y-101359403D01*
X136217542Y-101335000D01*
X135540750Y-101335000D01*
X135382000Y-101493750D01*
X135128000Y-101493750D01*
X134969250Y-101335000D01*
X134292458Y-101335000D01*
X134169777Y-101359403D01*
X134054215Y-101407270D01*
X133950211Y-101476763D01*
X133861763Y-101565211D01*
X133792270Y-101669215D01*
X133744403Y-101784777D01*
X133720000Y-101907458D01*
X131520000Y-101907458D01*
X131520000Y-94893109D01*
X140798519Y-94893109D01*
X140919186Y-95123000D01*
X142113000Y-95123000D01*
X142113000Y-93929845D01*
X141883110Y-93808524D01*
X141735901Y-93853175D01*
X141473080Y-93978359D01*
X141239731Y-94152412D01*
X141044822Y-94368645D01*
X140895843Y-94618748D01*
X140798519Y-94893109D01*
X131520000Y-94893109D01*
X131520000Y-86547925D01*
X133017062Y-86547925D01*
X133096185Y-86979030D01*
X133257536Y-87386557D01*
X133494970Y-87754982D01*
X133799443Y-88070273D01*
X134159358Y-88320421D01*
X134561005Y-88495896D01*
X134989087Y-88590016D01*
X135427297Y-88599195D01*
X135858944Y-88523084D01*
X136267587Y-88364582D01*
X136637661Y-88129726D01*
X136955070Y-87827461D01*
X137207724Y-87469302D01*
X137385999Y-87068889D01*
X137483105Y-86641475D01*
X137490096Y-86140847D01*
X137404962Y-85710888D01*
X137237936Y-85305654D01*
X136995381Y-84940580D01*
X136686536Y-84629571D01*
X136323164Y-84384473D01*
X135919105Y-84214622D01*
X135489751Y-84126489D01*
X135051456Y-84123429D01*
X134620914Y-84205559D01*
X134214523Y-84369752D01*
X133847764Y-84609752D01*
X133534607Y-84916419D01*
X133286978Y-85278071D01*
X133114311Y-85680933D01*
X133023182Y-86109662D01*
X133017062Y-86547925D01*
X131520000Y-86547925D01*
X131520000Y-82625000D01*
X160580000Y-82625000D01*
X160580000Y-98676130D01*
M02*
