G04 #@! TF.FileFunction,Legend,Top*
%FSLAX46Y46*%
G04 Gerber Fmt 4.6, Leading zero omitted, Abs format (unit mm)*
G04 Created by KiCad (PCBNEW 4.0.6) date 04/11/17 07:21:03*
%MOMM*%
%LPD*%
G01*
G04 APERTURE LIST*
%ADD10C,0.100000*%
%ADD11C,0.250000*%
%ADD12C,0.200000*%
%ADD13C,0.125000*%
%ADD14C,0.120000*%
%ADD15C,0.150000*%
G04 APERTURE END LIST*
D10*
D11*
X135917619Y-92615000D02*
X135917619Y-92138809D01*
X136917619Y-92138809D01*
X136441429Y-92948333D02*
X136441429Y-93281667D01*
X135917619Y-93424524D02*
X135917619Y-92948333D01*
X136917619Y-92948333D01*
X136917619Y-93424524D01*
X135917619Y-93853095D02*
X136917619Y-93853095D01*
X136917619Y-94091190D01*
X136870000Y-94234048D01*
X136774762Y-94329286D01*
X136679524Y-94376905D01*
X136489048Y-94424524D01*
X136346190Y-94424524D01*
X136155714Y-94376905D01*
X136060476Y-94329286D01*
X135965238Y-94234048D01*
X135917619Y-94091190D01*
X135917619Y-93853095D01*
X136441429Y-95186429D02*
X136393810Y-95329286D01*
X136346190Y-95376905D01*
X136250952Y-95424524D01*
X136108095Y-95424524D01*
X136012857Y-95376905D01*
X135965238Y-95329286D01*
X135917619Y-95234048D01*
X135917619Y-94853095D01*
X136917619Y-94853095D01*
X136917619Y-95186429D01*
X136870000Y-95281667D01*
X136822381Y-95329286D01*
X136727143Y-95376905D01*
X136631905Y-95376905D01*
X136536667Y-95329286D01*
X136489048Y-95281667D01*
X136441429Y-95186429D01*
X136441429Y-94853095D01*
X135917619Y-95995952D02*
X135965238Y-95900714D01*
X136012857Y-95853095D01*
X136108095Y-95805476D01*
X136393810Y-95805476D01*
X136489048Y-95853095D01*
X136536667Y-95900714D01*
X136584286Y-95995952D01*
X136584286Y-96138810D01*
X136536667Y-96234048D01*
X136489048Y-96281667D01*
X136393810Y-96329286D01*
X136108095Y-96329286D01*
X136012857Y-96281667D01*
X135965238Y-96234048D01*
X135917619Y-96138810D01*
X135917619Y-95995952D01*
X135917619Y-96662619D02*
X136584286Y-97186429D01*
X136584286Y-96662619D02*
X135917619Y-97186429D01*
X134167619Y-90519761D02*
X135167619Y-90519761D01*
X135167619Y-90900714D01*
X135120000Y-90995952D01*
X135072381Y-91043571D01*
X134977143Y-91091190D01*
X134834286Y-91091190D01*
X134739048Y-91043571D01*
X134691429Y-90995952D01*
X134643810Y-90900714D01*
X134643810Y-90519761D01*
X134167619Y-91662618D02*
X134215238Y-91567380D01*
X134262857Y-91519761D01*
X134358095Y-91472142D01*
X134643810Y-91472142D01*
X134739048Y-91519761D01*
X134786667Y-91567380D01*
X134834286Y-91662618D01*
X134834286Y-91805476D01*
X134786667Y-91900714D01*
X134739048Y-91948333D01*
X134643810Y-91995952D01*
X134358095Y-91995952D01*
X134262857Y-91948333D01*
X134215238Y-91900714D01*
X134167619Y-91805476D01*
X134167619Y-91662618D01*
X134834286Y-92329285D02*
X134167619Y-92519761D01*
X134643810Y-92710238D01*
X134167619Y-92900714D01*
X134834286Y-93091190D01*
X134215238Y-93853095D02*
X134167619Y-93757857D01*
X134167619Y-93567380D01*
X134215238Y-93472142D01*
X134310476Y-93424523D01*
X134691429Y-93424523D01*
X134786667Y-93472142D01*
X134834286Y-93567380D01*
X134834286Y-93757857D01*
X134786667Y-93853095D01*
X134691429Y-93900714D01*
X134596190Y-93900714D01*
X134500952Y-93424523D01*
X134167619Y-94329285D02*
X134834286Y-94329285D01*
X134643810Y-94329285D02*
X134739048Y-94376904D01*
X134786667Y-94424523D01*
X134834286Y-94519761D01*
X134834286Y-94615000D01*
X134167619Y-94948333D02*
X135167619Y-94948333D01*
X134786667Y-94948333D02*
X134834286Y-95043571D01*
X134834286Y-95234048D01*
X134786667Y-95329286D01*
X134739048Y-95376905D01*
X134643810Y-95424524D01*
X134358095Y-95424524D01*
X134262857Y-95376905D01*
X134215238Y-95329286D01*
X134167619Y-95234048D01*
X134167619Y-95043571D01*
X134215238Y-94948333D01*
X134167619Y-95995952D02*
X134215238Y-95900714D01*
X134262857Y-95853095D01*
X134358095Y-95805476D01*
X134643810Y-95805476D01*
X134739048Y-95853095D01*
X134786667Y-95900714D01*
X134834286Y-95995952D01*
X134834286Y-96138810D01*
X134786667Y-96234048D01*
X134739048Y-96281667D01*
X134643810Y-96329286D01*
X134358095Y-96329286D01*
X134262857Y-96281667D01*
X134215238Y-96234048D01*
X134167619Y-96138810D01*
X134167619Y-95995952D01*
X134167619Y-97186429D02*
X134691429Y-97186429D01*
X134786667Y-97138810D01*
X134834286Y-97043572D01*
X134834286Y-96853095D01*
X134786667Y-96757857D01*
X134215238Y-97186429D02*
X134167619Y-97091191D01*
X134167619Y-96853095D01*
X134215238Y-96757857D01*
X134310476Y-96710238D01*
X134405714Y-96710238D01*
X134500952Y-96757857D01*
X134548571Y-96853095D01*
X134548571Y-97091191D01*
X134596190Y-97186429D01*
X134167619Y-97662619D02*
X134834286Y-97662619D01*
X134643810Y-97662619D02*
X134739048Y-97710238D01*
X134786667Y-97757857D01*
X134834286Y-97853095D01*
X134834286Y-97948334D01*
X134167619Y-98710239D02*
X135167619Y-98710239D01*
X134215238Y-98710239D02*
X134167619Y-98615001D01*
X134167619Y-98424524D01*
X134215238Y-98329286D01*
X134262857Y-98281667D01*
X134358095Y-98234048D01*
X134643810Y-98234048D01*
X134739048Y-98281667D01*
X134786667Y-98329286D01*
X134834286Y-98424524D01*
X134834286Y-98615001D01*
X134786667Y-98710239D01*
X132417619Y-93257857D02*
X133084286Y-93257857D01*
X132893810Y-93257857D02*
X132989048Y-93305476D01*
X133036667Y-93353095D01*
X133084286Y-93448333D01*
X133084286Y-93543572D01*
X132465238Y-94257858D02*
X132417619Y-94162620D01*
X132417619Y-93972143D01*
X132465238Y-93876905D01*
X132560476Y-93829286D01*
X132941429Y-93829286D01*
X133036667Y-93876905D01*
X133084286Y-93972143D01*
X133084286Y-94162620D01*
X133036667Y-94257858D01*
X132941429Y-94305477D01*
X132846190Y-94305477D01*
X132750952Y-93829286D01*
X133084286Y-94638810D02*
X132417619Y-94876905D01*
X133084286Y-95115001D01*
X132417619Y-96019763D02*
X132417619Y-95448334D01*
X132417619Y-95734048D02*
X133417619Y-95734048D01*
X133274762Y-95638810D01*
X133179524Y-95543572D01*
X133131905Y-95448334D01*
D12*
X158273810Y-111410714D02*
X158235715Y-111448810D01*
X158121429Y-111486905D01*
X158045239Y-111486905D01*
X157930953Y-111448810D01*
X157854762Y-111372619D01*
X157816667Y-111296429D01*
X157778572Y-111144048D01*
X157778572Y-111029762D01*
X157816667Y-110877381D01*
X157854762Y-110801190D01*
X157930953Y-110725000D01*
X158045239Y-110686905D01*
X158121429Y-110686905D01*
X158235715Y-110725000D01*
X158273810Y-110763095D01*
X158997620Y-111486905D02*
X158616667Y-111486905D01*
X158616667Y-110686905D01*
X159264286Y-111486905D02*
X159264286Y-110686905D01*
X159721429Y-111486905D02*
X159378572Y-111029762D01*
X159721429Y-110686905D02*
X159264286Y-111144048D01*
X153740000Y-111486905D02*
X153740000Y-110686905D01*
X153930476Y-110686905D01*
X154044762Y-110725000D01*
X154120953Y-110801190D01*
X154159048Y-110877381D01*
X154197143Y-111029762D01*
X154197143Y-111144048D01*
X154159048Y-111296429D01*
X154120953Y-111372619D01*
X154044762Y-111448810D01*
X153930476Y-111486905D01*
X153740000Y-111486905D01*
X154501905Y-111258333D02*
X154882857Y-111258333D01*
X154425714Y-111486905D02*
X154692381Y-110686905D01*
X154959048Y-111486905D01*
X155111428Y-110686905D02*
X155568571Y-110686905D01*
X155340000Y-111486905D02*
X155340000Y-110686905D01*
X155797143Y-111258333D02*
X156178095Y-111258333D01*
X155720952Y-111486905D02*
X155987619Y-110686905D01*
X156254286Y-111486905D01*
D11*
X152146096Y-117102000D02*
X152050858Y-117054381D01*
X151908001Y-117054381D01*
X151765143Y-117102000D01*
X151669905Y-117197238D01*
X151622286Y-117292476D01*
X151574667Y-117482952D01*
X151574667Y-117625810D01*
X151622286Y-117816286D01*
X151669905Y-117911524D01*
X151765143Y-118006762D01*
X151908001Y-118054381D01*
X152003239Y-118054381D01*
X152146096Y-118006762D01*
X152193715Y-117959143D01*
X152193715Y-117625810D01*
X152003239Y-117625810D01*
X152622286Y-118054381D02*
X152622286Y-117054381D01*
X153193715Y-118054381D01*
X153193715Y-117054381D01*
X153669905Y-118054381D02*
X153669905Y-117054381D01*
X153908000Y-117054381D01*
X154050858Y-117102000D01*
X154146096Y-117197238D01*
X154193715Y-117292476D01*
X154241334Y-117482952D01*
X154241334Y-117625810D01*
X154193715Y-117816286D01*
X154146096Y-117911524D01*
X154050858Y-118006762D01*
X153908000Y-118054381D01*
X153669905Y-118054381D01*
X137652286Y-117673429D02*
X138414191Y-117673429D01*
X138033239Y-118054381D02*
X138033239Y-117292476D01*
X139366572Y-117054381D02*
X138890381Y-117054381D01*
X138842762Y-117530571D01*
X138890381Y-117482952D01*
X138985619Y-117435333D01*
X139223715Y-117435333D01*
X139318953Y-117482952D01*
X139366572Y-117530571D01*
X139414191Y-117625810D01*
X139414191Y-117863905D01*
X139366572Y-117959143D01*
X139318953Y-118006762D01*
X139223715Y-118054381D01*
X138985619Y-118054381D01*
X138890381Y-118006762D01*
X138842762Y-117959143D01*
X139699905Y-117054381D02*
X140033238Y-118054381D01*
X140366572Y-117054381D01*
D12*
X153670000Y-99060000D02*
X153670000Y-82550000D01*
X138430000Y-99060000D02*
X153670000Y-99060000D01*
X138430000Y-82550000D02*
X138430000Y-99060000D01*
D11*
X141383333Y-92638571D02*
X141716667Y-92638571D01*
X141859524Y-93162381D02*
X141383333Y-93162381D01*
X141383333Y-92162381D01*
X141859524Y-92162381D01*
X142240476Y-93114762D02*
X142383333Y-93162381D01*
X142621429Y-93162381D01*
X142716667Y-93114762D01*
X142764286Y-93067143D01*
X142811905Y-92971905D01*
X142811905Y-92876667D01*
X142764286Y-92781429D01*
X142716667Y-92733810D01*
X142621429Y-92686190D01*
X142430952Y-92638571D01*
X142335714Y-92590952D01*
X142288095Y-92543333D01*
X142240476Y-92448095D01*
X142240476Y-92352857D01*
X142288095Y-92257619D01*
X142335714Y-92210000D01*
X142430952Y-92162381D01*
X142669048Y-92162381D01*
X142811905Y-92210000D01*
X143240476Y-93162381D02*
X143240476Y-92162381D01*
X143621429Y-92162381D01*
X143716667Y-92210000D01*
X143764286Y-92257619D01*
X143811905Y-92352857D01*
X143811905Y-92495714D01*
X143764286Y-92590952D01*
X143716667Y-92638571D01*
X143621429Y-92686190D01*
X143240476Y-92686190D01*
X144383333Y-92590952D02*
X144288095Y-92543333D01*
X144240476Y-92495714D01*
X144192857Y-92400476D01*
X144192857Y-92352857D01*
X144240476Y-92257619D01*
X144288095Y-92210000D01*
X144383333Y-92162381D01*
X144573810Y-92162381D01*
X144669048Y-92210000D01*
X144716667Y-92257619D01*
X144764286Y-92352857D01*
X144764286Y-92400476D01*
X144716667Y-92495714D01*
X144669048Y-92543333D01*
X144573810Y-92590952D01*
X144383333Y-92590952D01*
X144288095Y-92638571D01*
X144240476Y-92686190D01*
X144192857Y-92781429D01*
X144192857Y-92971905D01*
X144240476Y-93067143D01*
X144288095Y-93114762D01*
X144383333Y-93162381D01*
X144573810Y-93162381D01*
X144669048Y-93114762D01*
X144716667Y-93067143D01*
X144764286Y-92971905D01*
X144764286Y-92781429D01*
X144716667Y-92686190D01*
X144669048Y-92638571D01*
X144573810Y-92590952D01*
X145145238Y-92257619D02*
X145192857Y-92210000D01*
X145288095Y-92162381D01*
X145526191Y-92162381D01*
X145621429Y-92210000D01*
X145669048Y-92257619D01*
X145716667Y-92352857D01*
X145716667Y-92448095D01*
X145669048Y-92590952D01*
X145097619Y-93162381D01*
X145716667Y-93162381D01*
X146573810Y-92162381D02*
X146383333Y-92162381D01*
X146288095Y-92210000D01*
X146240476Y-92257619D01*
X146145238Y-92400476D01*
X146097619Y-92590952D01*
X146097619Y-92971905D01*
X146145238Y-93067143D01*
X146192857Y-93114762D01*
X146288095Y-93162381D01*
X146478572Y-93162381D01*
X146573810Y-93114762D01*
X146621429Y-93067143D01*
X146669048Y-92971905D01*
X146669048Y-92733810D01*
X146621429Y-92638571D01*
X146573810Y-92590952D01*
X146478572Y-92543333D01*
X146288095Y-92543333D01*
X146192857Y-92590952D01*
X146145238Y-92638571D01*
X146097619Y-92733810D01*
X147526191Y-92162381D02*
X147335714Y-92162381D01*
X147240476Y-92210000D01*
X147192857Y-92257619D01*
X147097619Y-92400476D01*
X147050000Y-92590952D01*
X147050000Y-92971905D01*
X147097619Y-93067143D01*
X147145238Y-93114762D01*
X147240476Y-93162381D01*
X147430953Y-93162381D01*
X147526191Y-93114762D01*
X147573810Y-93067143D01*
X147621429Y-92971905D01*
X147621429Y-92733810D01*
X147573810Y-92638571D01*
X147526191Y-92590952D01*
X147430953Y-92543333D01*
X147240476Y-92543333D01*
X147145238Y-92590952D01*
X147097619Y-92638571D01*
X147050000Y-92733810D01*
X148050000Y-92781429D02*
X148811905Y-92781429D01*
X149478571Y-92162381D02*
X149573810Y-92162381D01*
X149669048Y-92210000D01*
X149716667Y-92257619D01*
X149764286Y-92352857D01*
X149811905Y-92543333D01*
X149811905Y-92781429D01*
X149764286Y-92971905D01*
X149716667Y-93067143D01*
X149669048Y-93114762D01*
X149573810Y-93162381D01*
X149478571Y-93162381D01*
X149383333Y-93114762D01*
X149335714Y-93067143D01*
X149288095Y-92971905D01*
X149240476Y-92781429D01*
X149240476Y-92543333D01*
X149288095Y-92352857D01*
X149335714Y-92257619D01*
X149383333Y-92210000D01*
X149478571Y-92162381D01*
X150764286Y-93162381D02*
X150192857Y-93162381D01*
X150478571Y-93162381D02*
X150478571Y-92162381D01*
X150383333Y-92305238D01*
X150288095Y-92400476D01*
X150192857Y-92448095D01*
D13*
X149193334Y-100818190D02*
X149360001Y-101318190D01*
X149526667Y-100818190D01*
X149979048Y-101270571D02*
X149955238Y-101294381D01*
X149883810Y-101318190D01*
X149836191Y-101318190D01*
X149764762Y-101294381D01*
X149717143Y-101246762D01*
X149693334Y-101199143D01*
X149669524Y-101103905D01*
X149669524Y-101032476D01*
X149693334Y-100937238D01*
X149717143Y-100889619D01*
X149764762Y-100842000D01*
X149836191Y-100818190D01*
X149883810Y-100818190D01*
X149955238Y-100842000D01*
X149979048Y-100865810D01*
X150479048Y-101270571D02*
X150455238Y-101294381D01*
X150383810Y-101318190D01*
X150336191Y-101318190D01*
X150264762Y-101294381D01*
X150217143Y-101246762D01*
X150193334Y-101199143D01*
X150169524Y-101103905D01*
X150169524Y-101032476D01*
X150193334Y-100937238D01*
X150217143Y-100889619D01*
X150264762Y-100842000D01*
X150336191Y-100818190D01*
X150383810Y-100818190D01*
X150455238Y-100842000D01*
X150479048Y-100865810D01*
X149776667Y-100556190D02*
X149610000Y-100318095D01*
X149490953Y-100556190D02*
X149490953Y-100056190D01*
X149681429Y-100056190D01*
X149729048Y-100080000D01*
X149752857Y-100103810D01*
X149776667Y-100151429D01*
X149776667Y-100222857D01*
X149752857Y-100270476D01*
X149729048Y-100294286D01*
X149681429Y-100318095D01*
X149490953Y-100318095D01*
X149943334Y-100056190D02*
X150276667Y-100556190D01*
X150276667Y-100056190D02*
X149943334Y-100556190D01*
X147046191Y-101318190D02*
X146879524Y-101080095D01*
X146760477Y-101318190D02*
X146760477Y-100818190D01*
X146950953Y-100818190D01*
X146998572Y-100842000D01*
X147022381Y-100865810D01*
X147046191Y-100913429D01*
X147046191Y-100984857D01*
X147022381Y-101032476D01*
X146998572Y-101056286D01*
X146950953Y-101080095D01*
X146760477Y-101080095D01*
X147236667Y-101294381D02*
X147308096Y-101318190D01*
X147427143Y-101318190D01*
X147474762Y-101294381D01*
X147498572Y-101270571D01*
X147522381Y-101222952D01*
X147522381Y-101175333D01*
X147498572Y-101127714D01*
X147474762Y-101103905D01*
X147427143Y-101080095D01*
X147331905Y-101056286D01*
X147284286Y-101032476D01*
X147260477Y-101008667D01*
X147236667Y-100961048D01*
X147236667Y-100913429D01*
X147260477Y-100865810D01*
X147284286Y-100842000D01*
X147331905Y-100818190D01*
X147450953Y-100818190D01*
X147522381Y-100842000D01*
X147665238Y-100818190D02*
X147950952Y-100818190D01*
X147808095Y-101318190D02*
X147808095Y-100818190D01*
X146581905Y-100080000D02*
X146534286Y-100056190D01*
X146462858Y-100056190D01*
X146391429Y-100080000D01*
X146343810Y-100127619D01*
X146320001Y-100175238D01*
X146296191Y-100270476D01*
X146296191Y-100341905D01*
X146320001Y-100437143D01*
X146343810Y-100484762D01*
X146391429Y-100532381D01*
X146462858Y-100556190D01*
X146510477Y-100556190D01*
X146581905Y-100532381D01*
X146605715Y-100508571D01*
X146605715Y-100341905D01*
X146510477Y-100341905D01*
X146820001Y-100556190D02*
X146820001Y-100056190D01*
X147010477Y-100056190D01*
X147058096Y-100080000D01*
X147081905Y-100103810D01*
X147105715Y-100151429D01*
X147105715Y-100222857D01*
X147081905Y-100270476D01*
X147058096Y-100294286D01*
X147010477Y-100318095D01*
X146820001Y-100318095D01*
X147320001Y-100556190D02*
X147320001Y-100056190D01*
X147653334Y-100056190D02*
X147748572Y-100056190D01*
X147796191Y-100080000D01*
X147843810Y-100127619D01*
X147867619Y-100222857D01*
X147867619Y-100389524D01*
X147843810Y-100484762D01*
X147796191Y-100532381D01*
X147748572Y-100556190D01*
X147653334Y-100556190D01*
X147605715Y-100532381D01*
X147558096Y-100484762D01*
X147534286Y-100389524D01*
X147534286Y-100222857D01*
X147558096Y-100127619D01*
X147605715Y-100080000D01*
X147653334Y-100056190D01*
X148177144Y-100056190D02*
X148224763Y-100056190D01*
X148272382Y-100080000D01*
X148296191Y-100103810D01*
X148320001Y-100151429D01*
X148343810Y-100246667D01*
X148343810Y-100365714D01*
X148320001Y-100460952D01*
X148296191Y-100508571D01*
X148272382Y-100532381D01*
X148224763Y-100556190D01*
X148177144Y-100556190D01*
X148129525Y-100532381D01*
X148105715Y-100508571D01*
X148081906Y-100460952D01*
X148058096Y-100365714D01*
X148058096Y-100246667D01*
X148081906Y-100151429D01*
X148105715Y-100103810D01*
X148129525Y-100080000D01*
X148177144Y-100056190D01*
X143982381Y-101270571D02*
X143958571Y-101294381D01*
X143887143Y-101318190D01*
X143839524Y-101318190D01*
X143768095Y-101294381D01*
X143720476Y-101246762D01*
X143696667Y-101199143D01*
X143672857Y-101103905D01*
X143672857Y-101032476D01*
X143696667Y-100937238D01*
X143720476Y-100889619D01*
X143768095Y-100842000D01*
X143839524Y-100818190D01*
X143887143Y-100818190D01*
X143958571Y-100842000D01*
X143982381Y-100865810D01*
X144196667Y-101318190D02*
X144196667Y-100818190D01*
X144196667Y-101056286D02*
X144482381Y-101056286D01*
X144482381Y-101318190D02*
X144482381Y-100818190D01*
X144601429Y-101365810D02*
X144982381Y-101365810D01*
X145101429Y-101318190D02*
X145101429Y-100818190D01*
X145291905Y-100818190D01*
X145339524Y-100842000D01*
X145363333Y-100865810D01*
X145387143Y-100913429D01*
X145387143Y-100984857D01*
X145363333Y-101032476D01*
X145339524Y-101056286D01*
X145291905Y-101080095D01*
X145101429Y-101080095D01*
X145601429Y-101318190D02*
X145601429Y-100818190D01*
X145720476Y-100818190D01*
X145791905Y-100842000D01*
X145839524Y-100889619D01*
X145863333Y-100937238D01*
X145887143Y-101032476D01*
X145887143Y-101103905D01*
X145863333Y-101199143D01*
X145839524Y-101246762D01*
X145791905Y-101294381D01*
X145720476Y-101318190D01*
X145601429Y-101318190D01*
X141859047Y-100080000D02*
X141811428Y-100056190D01*
X141740000Y-100056190D01*
X141668571Y-100080000D01*
X141620952Y-100127619D01*
X141597143Y-100175238D01*
X141573333Y-100270476D01*
X141573333Y-100341905D01*
X141597143Y-100437143D01*
X141620952Y-100484762D01*
X141668571Y-100532381D01*
X141740000Y-100556190D01*
X141787619Y-100556190D01*
X141859047Y-100532381D01*
X141882857Y-100508571D01*
X141882857Y-100341905D01*
X141787619Y-100341905D01*
X142097143Y-100556190D02*
X142097143Y-100056190D01*
X142382857Y-100556190D01*
X142382857Y-100056190D01*
X142620953Y-100556190D02*
X142620953Y-100056190D01*
X142740000Y-100056190D01*
X142811429Y-100080000D01*
X142859048Y-100127619D01*
X142882857Y-100175238D01*
X142906667Y-100270476D01*
X142906667Y-100341905D01*
X142882857Y-100437143D01*
X142859048Y-100484762D01*
X142811429Y-100532381D01*
X142740000Y-100556190D01*
X142620953Y-100556190D01*
X144041905Y-100080000D02*
X143994286Y-100056190D01*
X143922858Y-100056190D01*
X143851429Y-100080000D01*
X143803810Y-100127619D01*
X143780001Y-100175238D01*
X143756191Y-100270476D01*
X143756191Y-100341905D01*
X143780001Y-100437143D01*
X143803810Y-100484762D01*
X143851429Y-100532381D01*
X143922858Y-100556190D01*
X143970477Y-100556190D01*
X144041905Y-100532381D01*
X144065715Y-100508571D01*
X144065715Y-100341905D01*
X143970477Y-100341905D01*
X144280001Y-100556190D02*
X144280001Y-100056190D01*
X144470477Y-100056190D01*
X144518096Y-100080000D01*
X144541905Y-100103810D01*
X144565715Y-100151429D01*
X144565715Y-100222857D01*
X144541905Y-100270476D01*
X144518096Y-100294286D01*
X144470477Y-100318095D01*
X144280001Y-100318095D01*
X144780001Y-100556190D02*
X144780001Y-100056190D01*
X145113334Y-100056190D02*
X145208572Y-100056190D01*
X145256191Y-100080000D01*
X145303810Y-100127619D01*
X145327619Y-100222857D01*
X145327619Y-100389524D01*
X145303810Y-100484762D01*
X145256191Y-100532381D01*
X145208572Y-100556190D01*
X145113334Y-100556190D01*
X145065715Y-100532381D01*
X145018096Y-100484762D01*
X144994286Y-100389524D01*
X144994286Y-100222857D01*
X145018096Y-100127619D01*
X145065715Y-100080000D01*
X145113334Y-100056190D01*
X145518096Y-100103810D02*
X145541906Y-100080000D01*
X145589525Y-100056190D01*
X145708572Y-100056190D01*
X145756191Y-100080000D01*
X145780001Y-100103810D01*
X145803810Y-100151429D01*
X145803810Y-100199048D01*
X145780001Y-100270476D01*
X145494287Y-100556190D01*
X145803810Y-100556190D01*
X141859048Y-100818190D02*
X142144762Y-100818190D01*
X142001905Y-101318190D02*
X142001905Y-100818190D01*
X142263810Y-100818190D02*
X142597143Y-101318190D01*
X142597143Y-100818190D02*
X142263810Y-101318190D01*
D14*
X157135000Y-99730000D02*
X156805000Y-99730000D01*
X156805000Y-99730000D02*
X156805000Y-93310000D01*
X156805000Y-93310000D02*
X157135000Y-93310000D01*
X159095000Y-99730000D02*
X159425000Y-99730000D01*
X159425000Y-99730000D02*
X159425000Y-93310000D01*
X159425000Y-93310000D02*
X159095000Y-93310000D01*
X137541000Y-86360000D02*
G75*
G03X137541000Y-86360000I-2286000J0D01*
G01*
X159131000Y-86360000D02*
G75*
G03X159131000Y-86360000I-2286000J0D01*
G01*
X159131000Y-114935000D02*
G75*
G03X159131000Y-114935000I-2286000J0D01*
G01*
X137875000Y-100290000D02*
X137875000Y-110530000D01*
X133234000Y-100290000D02*
X133234000Y-110530000D01*
X137875000Y-100290000D02*
X133234000Y-100290000D01*
X137875000Y-110530000D02*
X133234000Y-110530000D01*
X136365000Y-100290000D02*
X136365000Y-110530000D01*
X137875000Y-103560000D02*
X136365000Y-103560000D01*
X137875000Y-107261000D02*
X136365000Y-107261000D01*
X143219357Y-108478440D02*
G75*
G03X143220000Y-102301764I-979357J3088440D01*
G01*
X141260643Y-108478440D02*
G75*
G02X141260000Y-102301764I979357J3088440D01*
G01*
X141260643Y-108478440D02*
G75*
G03X143220000Y-108478236I979357J3088440D01*
G01*
X145440000Y-105390000D02*
X139040000Y-105390000D01*
X145440000Y-105430000D02*
X139040000Y-105430000D01*
X145440000Y-105470000D02*
X139040000Y-105470000D01*
X145438000Y-105510000D02*
X139042000Y-105510000D01*
X145437000Y-105550000D02*
X139043000Y-105550000D01*
X145434000Y-105590000D02*
X139046000Y-105590000D01*
X145432000Y-105630000D02*
X139048000Y-105630000D01*
X145428000Y-105670000D02*
X143220000Y-105670000D01*
X141260000Y-105670000D02*
X139052000Y-105670000D01*
X145425000Y-105710000D02*
X143220000Y-105710000D01*
X141260000Y-105710000D02*
X139055000Y-105710000D01*
X145420000Y-105750000D02*
X143220000Y-105750000D01*
X141260000Y-105750000D02*
X139060000Y-105750000D01*
X145416000Y-105790000D02*
X143220000Y-105790000D01*
X141260000Y-105790000D02*
X139064000Y-105790000D01*
X145410000Y-105830000D02*
X143220000Y-105830000D01*
X141260000Y-105830000D02*
X139070000Y-105830000D01*
X145405000Y-105870000D02*
X143220000Y-105870000D01*
X141260000Y-105870000D02*
X139075000Y-105870000D01*
X145398000Y-105910000D02*
X143220000Y-105910000D01*
X141260000Y-105910000D02*
X139082000Y-105910000D01*
X145392000Y-105950000D02*
X143220000Y-105950000D01*
X141260000Y-105950000D02*
X139088000Y-105950000D01*
X145384000Y-105990000D02*
X143220000Y-105990000D01*
X141260000Y-105990000D02*
X139096000Y-105990000D01*
X145377000Y-106030000D02*
X143220000Y-106030000D01*
X141260000Y-106030000D02*
X139103000Y-106030000D01*
X145368000Y-106070000D02*
X143220000Y-106070000D01*
X141260000Y-106070000D02*
X139112000Y-106070000D01*
X145359000Y-106111000D02*
X143220000Y-106111000D01*
X141260000Y-106111000D02*
X139121000Y-106111000D01*
X145350000Y-106151000D02*
X143220000Y-106151000D01*
X141260000Y-106151000D02*
X139130000Y-106151000D01*
X145340000Y-106191000D02*
X143220000Y-106191000D01*
X141260000Y-106191000D02*
X139140000Y-106191000D01*
X145330000Y-106231000D02*
X143220000Y-106231000D01*
X141260000Y-106231000D02*
X139150000Y-106231000D01*
X145319000Y-106271000D02*
X143220000Y-106271000D01*
X141260000Y-106271000D02*
X139161000Y-106271000D01*
X145307000Y-106311000D02*
X143220000Y-106311000D01*
X141260000Y-106311000D02*
X139173000Y-106311000D01*
X145295000Y-106351000D02*
X143220000Y-106351000D01*
X141260000Y-106351000D02*
X139185000Y-106351000D01*
X145282000Y-106391000D02*
X143220000Y-106391000D01*
X141260000Y-106391000D02*
X139198000Y-106391000D01*
X145269000Y-106431000D02*
X143220000Y-106431000D01*
X141260000Y-106431000D02*
X139211000Y-106431000D01*
X145255000Y-106471000D02*
X143220000Y-106471000D01*
X141260000Y-106471000D02*
X139225000Y-106471000D01*
X145241000Y-106511000D02*
X143220000Y-106511000D01*
X141260000Y-106511000D02*
X139239000Y-106511000D01*
X145226000Y-106551000D02*
X143220000Y-106551000D01*
X141260000Y-106551000D02*
X139254000Y-106551000D01*
X145210000Y-106591000D02*
X143220000Y-106591000D01*
X141260000Y-106591000D02*
X139270000Y-106591000D01*
X145194000Y-106631000D02*
X143220000Y-106631000D01*
X141260000Y-106631000D02*
X139286000Y-106631000D01*
X145177000Y-106671000D02*
X143220000Y-106671000D01*
X141260000Y-106671000D02*
X139303000Y-106671000D01*
X145159000Y-106711000D02*
X143220000Y-106711000D01*
X141260000Y-106711000D02*
X139321000Y-106711000D01*
X145141000Y-106751000D02*
X143220000Y-106751000D01*
X141260000Y-106751000D02*
X139339000Y-106751000D01*
X145122000Y-106791000D02*
X143220000Y-106791000D01*
X141260000Y-106791000D02*
X139358000Y-106791000D01*
X145103000Y-106831000D02*
X143220000Y-106831000D01*
X141260000Y-106831000D02*
X139377000Y-106831000D01*
X145083000Y-106871000D02*
X143220000Y-106871000D01*
X141260000Y-106871000D02*
X139397000Y-106871000D01*
X145062000Y-106911000D02*
X143220000Y-106911000D01*
X141260000Y-106911000D02*
X139418000Y-106911000D01*
X145040000Y-106951000D02*
X143220000Y-106951000D01*
X141260000Y-106951000D02*
X139440000Y-106951000D01*
X145018000Y-106991000D02*
X143220000Y-106991000D01*
X141260000Y-106991000D02*
X139462000Y-106991000D01*
X144995000Y-107031000D02*
X143220000Y-107031000D01*
X141260000Y-107031000D02*
X139485000Y-107031000D01*
X144971000Y-107071000D02*
X143220000Y-107071000D01*
X141260000Y-107071000D02*
X139509000Y-107071000D01*
X144946000Y-107111000D02*
X143220000Y-107111000D01*
X141260000Y-107111000D02*
X139534000Y-107111000D01*
X144921000Y-107151000D02*
X143220000Y-107151000D01*
X141260000Y-107151000D02*
X139559000Y-107151000D01*
X144894000Y-107191000D02*
X143220000Y-107191000D01*
X141260000Y-107191000D02*
X139586000Y-107191000D01*
X144867000Y-107231000D02*
X143220000Y-107231000D01*
X141260000Y-107231000D02*
X139613000Y-107231000D01*
X144839000Y-107271000D02*
X143220000Y-107271000D01*
X141260000Y-107271000D02*
X139641000Y-107271000D01*
X144810000Y-107311000D02*
X143220000Y-107311000D01*
X141260000Y-107311000D02*
X139670000Y-107311000D01*
X144780000Y-107351000D02*
X143220000Y-107351000D01*
X141260000Y-107351000D02*
X139700000Y-107351000D01*
X144750000Y-107391000D02*
X143220000Y-107391000D01*
X141260000Y-107391000D02*
X139730000Y-107391000D01*
X144718000Y-107431000D02*
X143220000Y-107431000D01*
X141260000Y-107431000D02*
X139762000Y-107431000D01*
X144685000Y-107471000D02*
X143220000Y-107471000D01*
X141260000Y-107471000D02*
X139795000Y-107471000D01*
X144651000Y-107511000D02*
X143220000Y-107511000D01*
X141260000Y-107511000D02*
X139829000Y-107511000D01*
X144615000Y-107551000D02*
X143220000Y-107551000D01*
X141260000Y-107551000D02*
X139865000Y-107551000D01*
X144579000Y-107591000D02*
X143220000Y-107591000D01*
X141260000Y-107591000D02*
X139901000Y-107591000D01*
X144541000Y-107631000D02*
X139939000Y-107631000D01*
X144502000Y-107671000D02*
X139978000Y-107671000D01*
X144462000Y-107711000D02*
X140018000Y-107711000D01*
X144420000Y-107751000D02*
X140060000Y-107751000D01*
X144377000Y-107791000D02*
X140103000Y-107791000D01*
X144332000Y-107831000D02*
X140148000Y-107831000D01*
X144285000Y-107871000D02*
X140195000Y-107871000D01*
X144237000Y-107911000D02*
X140243000Y-107911000D01*
X144186000Y-107951000D02*
X140294000Y-107951000D01*
X144134000Y-107991000D02*
X140346000Y-107991000D01*
X144079000Y-108031000D02*
X140401000Y-108031000D01*
X144021000Y-108071000D02*
X140459000Y-108071000D01*
X143961000Y-108111000D02*
X140519000Y-108111000D01*
X143898000Y-108151000D02*
X140582000Y-108151000D01*
X143831000Y-108191000D02*
X140649000Y-108191000D01*
X143760000Y-108231000D02*
X140720000Y-108231000D01*
X143685000Y-108271000D02*
X140795000Y-108271000D01*
X143604000Y-108311000D02*
X140876000Y-108311000D01*
X143518000Y-108351000D02*
X140962000Y-108351000D01*
X143424000Y-108391000D02*
X141056000Y-108391000D01*
X143321000Y-108431000D02*
X141159000Y-108431000D01*
X143206000Y-108471000D02*
X141274000Y-108471000D01*
X143074000Y-108511000D02*
X141406000Y-108511000D01*
X142916000Y-108551000D02*
X141564000Y-108551000D01*
X142708000Y-108591000D02*
X141772000Y-108591000D01*
X142240000Y-101940000D02*
X142240000Y-103140000D01*
X142890000Y-102540000D02*
X141590000Y-102540000D01*
X148880643Y-102341560D02*
G75*
G03X148880000Y-108518236I979357J-3088440D01*
G01*
X150839357Y-102341560D02*
G75*
G02X150840000Y-108518236I-979357J-3088440D01*
G01*
X150839357Y-102341560D02*
G75*
G03X148880000Y-102341764I-979357J-3088440D01*
G01*
X146660000Y-105430000D02*
X153060000Y-105430000D01*
X146660000Y-105390000D02*
X153060000Y-105390000D01*
X146660000Y-105350000D02*
X153060000Y-105350000D01*
X146662000Y-105310000D02*
X153058000Y-105310000D01*
X146663000Y-105270000D02*
X153057000Y-105270000D01*
X146666000Y-105230000D02*
X153054000Y-105230000D01*
X146668000Y-105190000D02*
X153052000Y-105190000D01*
X146672000Y-105150000D02*
X148880000Y-105150000D01*
X150840000Y-105150000D02*
X153048000Y-105150000D01*
X146675000Y-105110000D02*
X148880000Y-105110000D01*
X150840000Y-105110000D02*
X153045000Y-105110000D01*
X146680000Y-105070000D02*
X148880000Y-105070000D01*
X150840000Y-105070000D02*
X153040000Y-105070000D01*
X146684000Y-105030000D02*
X148880000Y-105030000D01*
X150840000Y-105030000D02*
X153036000Y-105030000D01*
X146690000Y-104990000D02*
X148880000Y-104990000D01*
X150840000Y-104990000D02*
X153030000Y-104990000D01*
X146695000Y-104950000D02*
X148880000Y-104950000D01*
X150840000Y-104950000D02*
X153025000Y-104950000D01*
X146702000Y-104910000D02*
X148880000Y-104910000D01*
X150840000Y-104910000D02*
X153018000Y-104910000D01*
X146708000Y-104870000D02*
X148880000Y-104870000D01*
X150840000Y-104870000D02*
X153012000Y-104870000D01*
X146716000Y-104830000D02*
X148880000Y-104830000D01*
X150840000Y-104830000D02*
X153004000Y-104830000D01*
X146723000Y-104790000D02*
X148880000Y-104790000D01*
X150840000Y-104790000D02*
X152997000Y-104790000D01*
X146732000Y-104750000D02*
X148880000Y-104750000D01*
X150840000Y-104750000D02*
X152988000Y-104750000D01*
X146741000Y-104709000D02*
X148880000Y-104709000D01*
X150840000Y-104709000D02*
X152979000Y-104709000D01*
X146750000Y-104669000D02*
X148880000Y-104669000D01*
X150840000Y-104669000D02*
X152970000Y-104669000D01*
X146760000Y-104629000D02*
X148880000Y-104629000D01*
X150840000Y-104629000D02*
X152960000Y-104629000D01*
X146770000Y-104589000D02*
X148880000Y-104589000D01*
X150840000Y-104589000D02*
X152950000Y-104589000D01*
X146781000Y-104549000D02*
X148880000Y-104549000D01*
X150840000Y-104549000D02*
X152939000Y-104549000D01*
X146793000Y-104509000D02*
X148880000Y-104509000D01*
X150840000Y-104509000D02*
X152927000Y-104509000D01*
X146805000Y-104469000D02*
X148880000Y-104469000D01*
X150840000Y-104469000D02*
X152915000Y-104469000D01*
X146818000Y-104429000D02*
X148880000Y-104429000D01*
X150840000Y-104429000D02*
X152902000Y-104429000D01*
X146831000Y-104389000D02*
X148880000Y-104389000D01*
X150840000Y-104389000D02*
X152889000Y-104389000D01*
X146845000Y-104349000D02*
X148880000Y-104349000D01*
X150840000Y-104349000D02*
X152875000Y-104349000D01*
X146859000Y-104309000D02*
X148880000Y-104309000D01*
X150840000Y-104309000D02*
X152861000Y-104309000D01*
X146874000Y-104269000D02*
X148880000Y-104269000D01*
X150840000Y-104269000D02*
X152846000Y-104269000D01*
X146890000Y-104229000D02*
X148880000Y-104229000D01*
X150840000Y-104229000D02*
X152830000Y-104229000D01*
X146906000Y-104189000D02*
X148880000Y-104189000D01*
X150840000Y-104189000D02*
X152814000Y-104189000D01*
X146923000Y-104149000D02*
X148880000Y-104149000D01*
X150840000Y-104149000D02*
X152797000Y-104149000D01*
X146941000Y-104109000D02*
X148880000Y-104109000D01*
X150840000Y-104109000D02*
X152779000Y-104109000D01*
X146959000Y-104069000D02*
X148880000Y-104069000D01*
X150840000Y-104069000D02*
X152761000Y-104069000D01*
X146978000Y-104029000D02*
X148880000Y-104029000D01*
X150840000Y-104029000D02*
X152742000Y-104029000D01*
X146997000Y-103989000D02*
X148880000Y-103989000D01*
X150840000Y-103989000D02*
X152723000Y-103989000D01*
X147017000Y-103949000D02*
X148880000Y-103949000D01*
X150840000Y-103949000D02*
X152703000Y-103949000D01*
X147038000Y-103909000D02*
X148880000Y-103909000D01*
X150840000Y-103909000D02*
X152682000Y-103909000D01*
X147060000Y-103869000D02*
X148880000Y-103869000D01*
X150840000Y-103869000D02*
X152660000Y-103869000D01*
X147082000Y-103829000D02*
X148880000Y-103829000D01*
X150840000Y-103829000D02*
X152638000Y-103829000D01*
X147105000Y-103789000D02*
X148880000Y-103789000D01*
X150840000Y-103789000D02*
X152615000Y-103789000D01*
X147129000Y-103749000D02*
X148880000Y-103749000D01*
X150840000Y-103749000D02*
X152591000Y-103749000D01*
X147154000Y-103709000D02*
X148880000Y-103709000D01*
X150840000Y-103709000D02*
X152566000Y-103709000D01*
X147179000Y-103669000D02*
X148880000Y-103669000D01*
X150840000Y-103669000D02*
X152541000Y-103669000D01*
X147206000Y-103629000D02*
X148880000Y-103629000D01*
X150840000Y-103629000D02*
X152514000Y-103629000D01*
X147233000Y-103589000D02*
X148880000Y-103589000D01*
X150840000Y-103589000D02*
X152487000Y-103589000D01*
X147261000Y-103549000D02*
X148880000Y-103549000D01*
X150840000Y-103549000D02*
X152459000Y-103549000D01*
X147290000Y-103509000D02*
X148880000Y-103509000D01*
X150840000Y-103509000D02*
X152430000Y-103509000D01*
X147320000Y-103469000D02*
X148880000Y-103469000D01*
X150840000Y-103469000D02*
X152400000Y-103469000D01*
X147350000Y-103429000D02*
X148880000Y-103429000D01*
X150840000Y-103429000D02*
X152370000Y-103429000D01*
X147382000Y-103389000D02*
X148880000Y-103389000D01*
X150840000Y-103389000D02*
X152338000Y-103389000D01*
X147415000Y-103349000D02*
X148880000Y-103349000D01*
X150840000Y-103349000D02*
X152305000Y-103349000D01*
X147449000Y-103309000D02*
X148880000Y-103309000D01*
X150840000Y-103309000D02*
X152271000Y-103309000D01*
X147485000Y-103269000D02*
X148880000Y-103269000D01*
X150840000Y-103269000D02*
X152235000Y-103269000D01*
X147521000Y-103229000D02*
X148880000Y-103229000D01*
X150840000Y-103229000D02*
X152199000Y-103229000D01*
X147559000Y-103189000D02*
X152161000Y-103189000D01*
X147598000Y-103149000D02*
X152122000Y-103149000D01*
X147638000Y-103109000D02*
X152082000Y-103109000D01*
X147680000Y-103069000D02*
X152040000Y-103069000D01*
X147723000Y-103029000D02*
X151997000Y-103029000D01*
X147768000Y-102989000D02*
X151952000Y-102989000D01*
X147815000Y-102949000D02*
X151905000Y-102949000D01*
X147863000Y-102909000D02*
X151857000Y-102909000D01*
X147914000Y-102869000D02*
X151806000Y-102869000D01*
X147966000Y-102829000D02*
X151754000Y-102829000D01*
X148021000Y-102789000D02*
X151699000Y-102789000D01*
X148079000Y-102749000D02*
X151641000Y-102749000D01*
X148139000Y-102709000D02*
X151581000Y-102709000D01*
X148202000Y-102669000D02*
X151518000Y-102669000D01*
X148269000Y-102629000D02*
X151451000Y-102629000D01*
X148340000Y-102589000D02*
X151380000Y-102589000D01*
X148415000Y-102549000D02*
X151305000Y-102549000D01*
X148496000Y-102509000D02*
X151224000Y-102509000D01*
X148582000Y-102469000D02*
X151138000Y-102469000D01*
X148676000Y-102429000D02*
X151044000Y-102429000D01*
X148779000Y-102389000D02*
X150941000Y-102389000D01*
X148894000Y-102349000D02*
X150826000Y-102349000D01*
X149026000Y-102309000D02*
X150694000Y-102309000D01*
X149184000Y-102269000D02*
X150536000Y-102269000D01*
X149392000Y-102229000D02*
X150328000Y-102229000D01*
X149860000Y-108880000D02*
X149860000Y-107680000D01*
X149210000Y-108280000D02*
X150510000Y-108280000D01*
X153325000Y-99730000D02*
X152995000Y-99730000D01*
X152995000Y-99730000D02*
X152995000Y-93310000D01*
X152995000Y-93310000D02*
X153325000Y-93310000D01*
X155285000Y-99730000D02*
X155615000Y-99730000D01*
X155615000Y-99730000D02*
X155615000Y-93310000D01*
X155615000Y-93310000D02*
X155285000Y-93310000D01*
X149260000Y-87340000D02*
X149260000Y-87670000D01*
X149260000Y-87670000D02*
X142840000Y-87670000D01*
X142840000Y-87670000D02*
X142840000Y-87340000D01*
X149260000Y-85380000D02*
X149260000Y-85050000D01*
X149260000Y-85050000D02*
X142840000Y-85050000D01*
X142840000Y-85050000D02*
X142840000Y-85380000D01*
X142840000Y-88555000D02*
X142840000Y-88225000D01*
X142840000Y-88225000D02*
X149260000Y-88225000D01*
X149260000Y-88225000D02*
X149260000Y-88555000D01*
X142840000Y-90515000D02*
X142840000Y-90845000D01*
X142840000Y-90845000D02*
X149260000Y-90845000D01*
X149260000Y-90845000D02*
X149260000Y-90515000D01*
X137541000Y-114935000D02*
G75*
G03X137541000Y-114935000I-2286000J0D01*
G01*
D15*
X146010000Y-119035000D02*
X146010000Y-119535000D01*
X150510000Y-115035000D02*
G75*
G03X150510000Y-115035000I-2000000J0D01*
G01*
X145510000Y-115035000D02*
G75*
G03X145510000Y-115035000I-2000000J0D01*
G01*
X141010000Y-117535000D02*
X151010000Y-117535000D01*
X141010000Y-112635000D02*
X151010000Y-112635000D01*
X141010000Y-119035000D02*
X151010000Y-119035000D01*
X141010000Y-119535000D02*
X151010000Y-119535000D01*
X151010000Y-119535000D02*
X151010000Y-109735000D01*
X151010000Y-109735000D02*
X141010000Y-109735000D01*
X141010000Y-109735000D02*
X141010000Y-119535000D01*
D14*
X156845000Y-107255000D02*
X154245000Y-107255000D01*
X154245000Y-107255000D02*
X154245000Y-109915000D01*
X154245000Y-109915000D02*
X156845000Y-109915000D01*
X156845000Y-109915000D02*
X156845000Y-107255000D01*
X158115000Y-107255000D02*
X159445000Y-107255000D01*
X159445000Y-107255000D02*
X159445000Y-108585000D01*
X148590000Y-99120000D02*
X140910000Y-99120000D01*
X140910000Y-99120000D02*
X140910000Y-93920000D01*
X140910000Y-93920000D02*
X151190000Y-93920000D01*
X151190000Y-93920000D02*
X151190000Y-96520000D01*
X151190000Y-96520000D02*
X148590000Y-96520000D01*
X148590000Y-96520000D02*
X148590000Y-99120000D01*
X149860000Y-99120000D02*
X151190000Y-99120000D01*
X151190000Y-99120000D02*
X151190000Y-97850000D01*
D15*
X158837334Y-91384381D02*
X158504000Y-90908190D01*
X158265905Y-91384381D02*
X158265905Y-90384381D01*
X158646858Y-90384381D01*
X158742096Y-90432000D01*
X158789715Y-90479619D01*
X158837334Y-90574857D01*
X158837334Y-90717714D01*
X158789715Y-90812952D01*
X158742096Y-90860571D01*
X158646858Y-90908190D01*
X158265905Y-90908190D01*
X159789715Y-91384381D02*
X159218286Y-91384381D01*
X159504000Y-91384381D02*
X159504000Y-90384381D01*
X159408762Y-90527238D01*
X159313524Y-90622476D01*
X159218286Y-90670095D01*
X131786381Y-106171905D02*
X132595905Y-106171905D01*
X132691143Y-106124286D01*
X132738762Y-106076667D01*
X132786381Y-105981429D01*
X132786381Y-105790952D01*
X132738762Y-105695714D01*
X132691143Y-105648095D01*
X132595905Y-105600476D01*
X131786381Y-105600476D01*
X132786381Y-104600476D02*
X132786381Y-105171905D01*
X132786381Y-104886191D02*
X131786381Y-104886191D01*
X131929238Y-104981429D01*
X132024476Y-105076667D01*
X132072095Y-105171905D01*
X139533334Y-102211143D02*
X139485715Y-102258762D01*
X139342858Y-102306381D01*
X139247620Y-102306381D01*
X139104762Y-102258762D01*
X139009524Y-102163524D01*
X138961905Y-102068286D01*
X138914286Y-101877810D01*
X138914286Y-101734952D01*
X138961905Y-101544476D01*
X139009524Y-101449238D01*
X139104762Y-101354000D01*
X139247620Y-101306381D01*
X139342858Y-101306381D01*
X139485715Y-101354000D01*
X139533334Y-101401619D01*
X140485715Y-102306381D02*
X139914286Y-102306381D01*
X140200000Y-102306381D02*
X140200000Y-101306381D01*
X140104762Y-101449238D01*
X140009524Y-101544476D01*
X139914286Y-101592095D01*
X153249334Y-103227143D02*
X153201715Y-103274762D01*
X153058858Y-103322381D01*
X152963620Y-103322381D01*
X152820762Y-103274762D01*
X152725524Y-103179524D01*
X152677905Y-103084286D01*
X152630286Y-102893810D01*
X152630286Y-102750952D01*
X152677905Y-102560476D01*
X152725524Y-102465238D01*
X152820762Y-102370000D01*
X152963620Y-102322381D01*
X153058858Y-102322381D01*
X153201715Y-102370000D01*
X153249334Y-102417619D01*
X153630286Y-102417619D02*
X153677905Y-102370000D01*
X153773143Y-102322381D01*
X154011239Y-102322381D01*
X154106477Y-102370000D01*
X154154096Y-102417619D01*
X154201715Y-102512857D01*
X154201715Y-102608095D01*
X154154096Y-102750952D01*
X153582667Y-103322381D01*
X154201715Y-103322381D01*
X155027334Y-91384381D02*
X154694000Y-90908190D01*
X154455905Y-91384381D02*
X154455905Y-90384381D01*
X154836858Y-90384381D01*
X154932096Y-90432000D01*
X154979715Y-90479619D01*
X155027334Y-90574857D01*
X155027334Y-90717714D01*
X154979715Y-90812952D01*
X154932096Y-90860571D01*
X154836858Y-90908190D01*
X154455905Y-90908190D01*
X155408286Y-90479619D02*
X155455905Y-90432000D01*
X155551143Y-90384381D01*
X155789239Y-90384381D01*
X155884477Y-90432000D01*
X155932096Y-90479619D01*
X155979715Y-90574857D01*
X155979715Y-90670095D01*
X155932096Y-90812952D01*
X155360667Y-91384381D01*
X155979715Y-91384381D01*
X139533334Y-89987381D02*
X139200000Y-89511190D01*
X138961905Y-89987381D02*
X138961905Y-88987381D01*
X139342858Y-88987381D01*
X139438096Y-89035000D01*
X139485715Y-89082619D01*
X139533334Y-89177857D01*
X139533334Y-89320714D01*
X139485715Y-89415952D01*
X139438096Y-89463571D01*
X139342858Y-89511190D01*
X138961905Y-89511190D01*
X139866667Y-88987381D02*
X140485715Y-88987381D01*
X140152381Y-89368333D01*
X140295239Y-89368333D01*
X140390477Y-89415952D01*
X140438096Y-89463571D01*
X140485715Y-89558810D01*
X140485715Y-89796905D01*
X140438096Y-89892143D01*
X140390477Y-89939762D01*
X140295239Y-89987381D01*
X140009524Y-89987381D01*
X139914286Y-89939762D01*
X139866667Y-89892143D01*
X139533334Y-86812381D02*
X139200000Y-86336190D01*
X138961905Y-86812381D02*
X138961905Y-85812381D01*
X139342858Y-85812381D01*
X139438096Y-85860000D01*
X139485715Y-85907619D01*
X139533334Y-86002857D01*
X139533334Y-86145714D01*
X139485715Y-86240952D01*
X139438096Y-86288571D01*
X139342858Y-86336190D01*
X138961905Y-86336190D01*
X140390477Y-86145714D02*
X140390477Y-86812381D01*
X140152381Y-85764762D02*
X139914286Y-86479048D01*
X140533334Y-86479048D01*
X145716667Y-108164381D02*
X145716667Y-108878667D01*
X145669047Y-109021524D01*
X145573809Y-109116762D01*
X145430952Y-109164381D01*
X145335714Y-109164381D01*
X146716667Y-109164381D02*
X146145238Y-109164381D01*
X146430952Y-109164381D02*
X146430952Y-108164381D01*
X146335714Y-108307238D01*
X146240476Y-108402476D01*
X146145238Y-108450095D01*
X156511667Y-105497381D02*
X156511667Y-106211667D01*
X156464047Y-106354524D01*
X156368809Y-106449762D01*
X156225952Y-106497381D01*
X156130714Y-106497381D01*
X156940238Y-105592619D02*
X156987857Y-105545000D01*
X157083095Y-105497381D01*
X157321191Y-105497381D01*
X157416429Y-105545000D01*
X157464048Y-105592619D01*
X157511667Y-105687857D01*
X157511667Y-105783095D01*
X157464048Y-105925952D01*
X156892619Y-106497381D01*
X157511667Y-106497381D01*
X151642381Y-96853333D02*
X152356667Y-96853333D01*
X152499524Y-96900953D01*
X152594762Y-96996191D01*
X152642381Y-97139048D01*
X152642381Y-97234286D01*
X151642381Y-96472381D02*
X151642381Y-95853333D01*
X152023333Y-96186667D01*
X152023333Y-96043809D01*
X152070952Y-95948571D01*
X152118571Y-95900952D01*
X152213810Y-95853333D01*
X152451905Y-95853333D01*
X152547143Y-95900952D01*
X152594762Y-95948571D01*
X152642381Y-96043809D01*
X152642381Y-96329524D01*
X152594762Y-96424762D01*
X152547143Y-96472381D01*
M02*
